<?xml version="1.0" standalone="no"?>
<!DOCTYPE svg PUBLIC "-//W3C//DTD SVG 1.1//EN" "http://www.w3.org/Graphics/SVG/1.1/DTD/svg11.dtd">
<svg xmlns="http://www.w3.org/2000/svg">
<metadata>Copyright (C) 2021 by original authors @ fontello.com</metadata>
<defs>
<font id="hitman2" horiz-adv-x="1000" >
<font-face font-family="hitman2" font-weight="400" font-stretch="normal" units-per-em="1000" ascent="850" descent="-150" />
<missing-glyph horiz-adv-x="1000" />
<glyph glyph-name="replay" unicode="&#xe800;" d="M808 291q0 127-90 217-91 91-218 91l-4 0 61 61-56 57-157-158 157-157 56 56-61 62 4 0q95 0 162-68 68-67 68-161 0-95-68-163-67-67-162-67-95 0-162 67-67 68-67 163l-79 0q0-63 24-120 23-56 66-98 43-43 99-67 56-24 119-24 127 0 218 91 90 90 90 218m-716 559l817 0q92 0 92-92l0-816q0-92-92-92l-817 0q-92 0-92 92l0 816q0 92 92 92" horiz-adv-x="1001" />

<glyph glyph-name="reset" unicode="&#xe801;" d="M569 571q54-16 95-57 68-68 68-164 0-96-68-164l-49 50q-5 5-13 4l-10-9-71-191q-3-7 1-12l11-6 260 4q8 0 12 8 3 8-3 14l-42 42q108 107 108 260 0 152-108 260-69 68-161 94-12 3-22-3-9-6-12-18l-15-81q-2-10 3-19 5-9 16-12m-477 279l817 0q92 0 92-92l0-816q0-92-92-92l-817 0q-92 0-92 92l0 816q0 92 92 92m375-172l-259-4q-8 0-12-8-3-9 3-15l41-41q-107-108-107-260 0-153 107-260 70-68 162-95l21 4q11 6 13 18l15 81q2 10-3 19-6 9-15 12-55 16-97 57-67 68-67 164 0 96 67 164l50-50q5-5 13-4 7 2 10 9l71 191q3 6-1 12l-12 6" horiz-adv-x="1001" />

<glyph glyph-name="reset-back" unicode="&#xe802;" d="M541 650l-276-300 274-300 149 0-222 242 402 0 0 116-400 0 220 242-147 0m-449 200l817 0q92 0 92-92l0-816q0-92-92-92l-817 0q-92 0-92 92l0 816q0 92 92 92m41-200l0-600 109 0 0 600-109 0" horiz-adv-x="1001" />

<glyph glyph-name="save" unicode="&#xe803;" d="M288 587l0-121 212-194 212 193 0 121-164-149 0 280-96 0 0-280-164 150m-196 263l817 0q92 0 92-92l0-816q0-92-92-92l-817 0q-92 0-92 92l0 816q0 92 92 92m570-728q19 0 32 13 12 13 12 30 0 18-12 31-13 12-32 12l-325 0q-18 0-30-12-13-13-13-31 0-17 13-30 12-13 30-13l325 0m-529 173l0-247q0-28 19-47 19-19 46-19l605 0q27 0 46 19 19 19 19 47l0 247-87 0 0-226-562 0 0 226-86 0" horiz-adv-x="1001" />

<glyph glyph-name="save-auto" unicode="&#xe804;" d="M522 683l-3-3-7-6-14-9-16-8-10-3-20-4-12-1-12 0-12 1-25 4-16 2-18 1-17-1-17-3-16-6-13-6-14-9-9-9-14-20-6-17-2-14 11 9 13 8 16 8 15 5 27 4 36-3 13-2 34-4 17 2 17 2 16 5 14 8 12 9 10 9 14 19 7 17 1 15m-430 167l817 0q92 0 92-92l0-816q0-92-92-92l-817 0q-92 0-92 92l0 816q0 92 92 92m578-583l0 138-176-138 0 138-176-138-20 288-99 0-19-288 0-250 666 0 0 388-176-138m-218-144l-104 0 0 75 104 0 0-75m346 0l-104 0 0 75 104 0 0-75m-173 0l-104 0 0 75 104 0 0-75" horiz-adv-x="1001" />

<glyph glyph-name="save-disabled" unicode="&#xe805;" d="M563 375l109 108-62 64-110-110-109 110-62-64 109-108-109-109 62-62 109 108 110-108 62 62-109 109m-471 475l817 0q92 0 92-92l0-816q0-92-92-92l-817 0q-92 0-92 92l0 816q0 92 92 92m75-560l0-225q0-25 17-42 18-17 42-17l549 0q24 0 41 17 17 17 17 42l0 225-78 0 0-206-509 0 0 206-79 0" horiz-adv-x="1001" />

<glyph glyph-name="search" unicode="&#xe806;" d="M269 581q60 58 143 58 84 0 142-58 60-60 60-142 0-85-60-143-58-60-142-60-83 0-143 60-59 58-59 143 0 82 59 142m340-340q81 82 81 198 0 114-81 196-82 82-197 82-116 0-197-82-82-82-82-196 0-116 82-198 81-81 197-81 115 0 197 81m-517 609l817 0q92 0 92-92l0-816q0-92-92-92l-817 0q-92 0-92 92l0 816q0 92 92 92m776-771l-180 180-97-97 180-180 97 97" horiz-adv-x="1001" />

<glyph glyph-name="security" unicode="&#xe807;" d="M92 850l817 0q92 0 92-92l0-816q0-92-92-92l-817 0q-92 0-92 92l0 816q0 92 92 92m570-133l-322 0q-40 0-69-29-29-28-29-68l0-638 87 0 0 610 343 0 0-610 86 0 0 638q0 40-27 68-29 29-69 29m-162-166q-23 0-39-16-17-17-17-41 0-23 17-40 16-16 39-16 24 0 40 16 17 17 17 40 0 24-17 41-16 16-40 16m131-320l0 144q0 19-13 33-14 13-33 13l-170 0q-18 0-32-13-13-14-13-33l0-144q0-10 7-17 6-6 15-6 10 0 17 6 6 7 6 17l0 99 20 0 0-319q0-13 8-21 8-8 19-8 12 0 20 8 8 8 8 21l0 198 22 0 0-198q0-13 7-21 8-8 20-8 11 0 19 8 8 8 8 21l0 319 19 0 0-99q0-10 7-17 7-6 16-6 10 0 17 6 6 7 6 17m237 161l0 86-85-43 85-43m-324 239l-87 0 0 47 87 0 0-47m-411-514l85 44-85 43 0-87m0 138l85 43-85 43 0-86m0 137l85 43-85 43 0-86m735-137l0 86-85-43 85-43m0-138l0 87-85-43 85-44" horiz-adv-x="1001" />

<glyph glyph-name="settings" unicode="&#xe808;" d="M92 850l817 0q92 0 92-92l0-816q0-92-92-92l-817 0q-92 0-92 92l0 816q0 92 92 92m546-363q58-57 58-137 0-82-58-139-57-57-138-57-81 0-138 57-58 57-58 139 0 80 58 137 57 58 138 58 81 0 138-58m-46 117l-24 112-135 0-24-112 0-7q-44-17-78-45l-6 4-110 35-67-116 86-77 6-4-4-44 4-45-6-4-86-77 67-117 110 36 6 3q34-27 78-44l0-8 24-112 135 0 24 112 0 8q44 17 76 44l7-3 110-36 68 117-87 77-6 3 4 46-4 44 6 4 87 77-69 116-109-35-7-4q-32 28-76 45l0 7m0-346q39 37 39 92 0 54-39 91-38 39-92 39-54 0-92-39-39-37-39-91 0-55 39-92 38-39 92-39 54 0 92 39" horiz-adv-x="1001" />

<glyph glyph-name="shockwave-ammo" unicode="&#xe809;" d="M909 427l-12 0 0-8-17 0-9 8-2 0 0-156 2 0 9 9 17 0 0-9 12 0 5 8 0 141-5 7m-600-24l-196-40-23-10 0-7 23-9 196-41 120 0 0-4 15 0 0 4 8 0 0-4 21 0 41-21 333 0 0 156-333 0-41-19-21 0 0-5-8 0 0 5-15 0 0-5-120 0m-217 447l817 0q92 0 92-92l0-816q0-92-92-92l-817 0q-92 0-92 92l0 816q0 92 92 92m123-402l55 19-27 38 102-39-3 117 60-97 0 105-120 192 6-232-202 78 129-181m127-331l3 116-102-39 27 39-55 18-129-180 202 77-6-232 120 192 0 105-60-96" horiz-adv-x="1001" />

<glyph glyph-name="shop" unicode="&#xe80a;" d="M830 717l-64 0q-15 0-25-8-10-10-12-23l-11-62-547 0q-16 0-29-14-12-14-8-31l47-275q2-14 13-22 11-9 24-9l440 0-9-53-407 0q-17 0-27-12-12-11-12-27 0-15 12-27 10-10 27-10l439 0q14 0 25 8 10 9 13 23l79 466 32 0q15 0 27 12 11 11 11 27 0 15-11 27-12 10-27 10m-738 133l817 0q92 0 92-92l0-816q0-92-92-92l-817 0q-92 0-92 92l0 816q0 92 92 92m417-303l68 0-8-197-60 0 0 197m136-197l8 197 52 0-34-197-26 0m-429 197l79 0 8-197-52 0-35 197m217-197l-54 0-8 197 62 0 0-197m-149-230q-29 0-49-20-20-21-20-49 0-28 20-48 20-21 49-21 28 0 48 21 20 20 20 48 0 29-20 49-20 20-48 20m370 0q-27 0-48-20-20-21-20-49 0-28 20-48 21-21 48-21 29 0 48 21 21 20 21 48 0 29-21 49-19 20-48 20" horiz-adv-x="1001" />

<glyph glyph-name="shotgun" unicode="&#xe80b;" d="M92 850l817 0q92 0 92-92l0-816q0-92-92-92l-817 0q-92 0-92 92l0 816q0 92 92 92m709-614l-325 262 1 0-108 86 13 16-165 132-12-15-60 48-61-76 60-48-12-14q-8-10-7-23 1-13 12-22l115-93q11-8 24-6 12 2 20 11l12 15 101-82-34-41-3-13q1-6 6-11l184-148q-12-66-7-96 3-18 14-26l72-58q15-11 36-11 25 0 55 14 18-42 21-94l4-7 8-2 139 32q14 3 12 16-3 58-21 112-31 91-94 142m-482-190l-7 0 0 157-89 0 0-157-8 0 0-94-2 0 0-18 109 0 0 18-3 0 0 94m127-94l0 94-7 0 0 157-90 0 0-157-7 0 0-94-2 0 0-18 109 0 0 18-3 0m-254 94l-7 0 0 157-90 0 0-157-7 0 0-94-2 0 0-18 109 0 0 18-3 0 0 94m319 379l121-97-34-43-121 98 34 42m166-342l-63 51 4 35 79-63 8-14-28-9" horiz-adv-x="1001" />

<glyph glyph-name="smg" unicode="&#xe80c;" d="M825 282l-71 49 26 49-211 148-38-41-81 57-23 56q-2 7-9 8-6 0-10-5l-19-25-172 120-34-48 167-117-12-15-142 99-33-48 137-96-8-8 86-60q-57-55-169-86l38-137q163 45 249 140l34-24q-43-65 1-95l63-44-32-76q-4-8-2-16 3-8 10-12l71-50q9-6 19-3 11 3 15 13l59 141 29-20 70 99q8 12 5 25-2 14-13 22m-733 568l817 0q92 0 92-92l0-816q0-92-92-92l-817 0q-92 0-92 92l0 816q0 92 92 92m519-649l-54 39-3 4q1 10 12 29l59-41-14-31" horiz-adv-x="1001" />

<glyph glyph-name="sniperrifle" unicode="&#xe80d;" d="M691 148q13-10 15-25 3-15-6-28l-10-14q-10-13-7-28 2-16 16-25l118-85 76 164q4 5 2 11l-7 9-189 136q-7 5-8 13-1 9 4 16l3 5q6 8 4 18-1 11-10 18l-97 69 15 22 8-6 52-49 42 58-63 34-118 86-52 48-42-58 63-34 8-6-16-21-358 258-23-32 283-203-28-68q-2-21 7-41 9-19 27-32l94-68q0-47 9-75 9-27 28-40l52-39-3-4q-5-5-3-12 1-7 7-10l8-6 12-4 11 8 22 31q10 13 25 16 16 2 29-7m-599 702l817 0q92 0 92-92l0-816q0-92-92-92l-817 0q-92 0-92 92l0 816q0 92 92 92m196-854l0 38-27 0 0-38q-40 5-69 34-28 28-33 68l39 0 0 27-39 0q5 40 33 68 29 29 69 34l0-39 27 0 0 39q41-5 68-34 29-28 34-68l-38 0 0-27 38 0q-5-40-34-68-27-29-68-34m156 130l-19 0q-4 54-43 92-38 40-93 45l0 18-29 0 0-18q-54-5-92-45-40-38-44-92l-19 0 0-29 19 0q4-55 44-93 38-38 92-43l0-18 29 0 0 18q55 5 93 43 39 38 43 93l19 0 0 29m166 48l-53 38q-11 9-16 44l84-60-15-22" horiz-adv-x="1001" />

<glyph glyph-name="stable" unicode="&#xe80e;" d="M92 850l817 0q92 0 92-92l0-816q0-92-92-92l-817 0q-92 0-92 92l0 816q0 92 92 92m408-198q79 0 145-36l48 46q-88 54-193 54-104 0-191-54l47-46q67 36 144 36m256-271l-42 0q-10 70-61 121-50 50-120 61l0 42-64 0 0-42q-70-11-121-61-50-51-61-121l-42 0 0-64 42 0q11-70 61-120 51-51 121-61l0-42 64 0 0 42q70 10 120 61 51 50 61 120l42 0 0 64m-223-180l0 35-64 0 0-35q-44 10-75 41-32 32-42 75l36 0 0 64-36 0q10 44 42 75 31 32 75 42l0-36 64 0 0 36q43-10 75-42 31-31 41-75l-35 0 0-64 35 0q-10-43-41-75-32-31-75-41m112-118q-66-36-145-36-77 0-144 36l-47-47q87-54 191-54 105 0 193 54l-48 47" horiz-adv-x="1001" />

<glyph glyph-name="stable-2" unicode="&#xe80f;" d="M92 850l817 0q92 0 92-92l0-816q0-92-92-92l-817 0q-92 0-92 92l0 816q0 92 92 92m408-198q79 0 145-36l48 46q-88 54-193 54-104 0-191-54l47-46q67 36 144 36m34-88l0 41-65 0 0-41q-69-12-121-62-49-50-60-121l-42 0 0-64 42 0q11-69 60-120 52-51 121-61l0-42 65 0 0 42q65 10 113 54l-47 45q-29-25-66-33l0 35-65 0 0-35q-43 9-75 40-31 32-41 75l35 0 0 64-35 0q10 44 41 75 32 32 75 42l0-36 65 0 0 36q37-9 66-33l47 45q-49 43-113 54m111-481q-66-36-145-36-77 0-144 36l-47-47q87-54 191-54 105 0 193 54l-48 47m46 138l209 0 0 54-117 0 16 15 18 14 20 13 18 14 17 15 14 17 10 20 3 25q0 18-6 34-6 16-19 27-12 12-31 19l-43 6q-32 0-53-9-22-11-33-27-10-14-14-29-4-16-4-40l62 0 2 24 10 16q10 12 29 12 17 0 25-9 9-10 9-26 0-10-5-17l-12-16-38-29-39-30q-10-8-19-18-8-9-14-21-7-10-10-24-4-14-5-30m-132 129l-40-40 31-30 40 39 37-36 29 28-38 37 40 41-31 30-39-40-38 37-28-28 37-38" horiz-adv-x="1001" />

<glyph glyph-name="stable-3" unicode="&#xe810;" d="M92 850l817 0q92 0 92-92l0-816q0-92-92-92l-817 0q-92 0-92 92l0 816q0 92 92 92m408-198q79 0 145-36l48 46q-88 54-193 54-104 0-191-54l47-46q67 36 144 36m34-88l0 41-65 0 0-41q-69-12-121-62-49-50-60-121l-42 0 0-64 42 0q11-69 60-120 52-51 121-61l0-42 65 0 0 42q65 10 113 54l-47 45q-29-25-66-33l0 35-65 0 0-35q-43 9-75 40-31 32-41 75l35 0 0 64-35 0q10 44 41 75 32 32 75 42l0-36 65 0 0 36q37-9 66-33l47 45q-49 43-113 54m111-481q-66-36-145-36-77 0-144 36l-47-47q87-54 191-54 105 0 193 54l-48 47m158 134l41 6q19 4 34 15 14 10 23 26 8 16 8 38 0 27-12 43-14 16-36 22l0 1q18 7 29 21 12 12 12 33 0 17-7 32-8 14-21 23-13 10-31 16l-41 4-44-6-33-19q-13-12-20-29-8-16-8-37l61 0q2 18 12 30 10 12 32 12 16 0 26-8 9-9 9-22 0-16-11-24-12-7-31-7l-14 0 0-46 16 0q23 0 34-10 12-8 12-26 0-17-11-27-11-11-31-11-25 0-37 14-11 14-13 36l-62 0q0-48 30-74 14-12 35-19l49-7m-244 133l-40-40 31-30 40 39 37-36 29 28-38 37 40 41-31 30-39-40-38 37-28-28 37-38" horiz-adv-x="1001" />

<glyph glyph-name="stable-4" unicode="&#xe811;" d="M92 850l817 0q92 0 92-92l0-816q0-92-92-92l-817 0q-92 0-92 92l0 816q0 92 92 92m408-198q79 0 145-36l48 46q-88 54-193 54-104 0-191-54l47-46q67 36 144 36m34-88l0 41-65 0 0-41q-69-12-121-62-49-50-60-121l-42 0 0-64 42 0q11-69 60-120 52-51 121-61l0-42 65 0 0 42q65 10 113 54l-47 45q-29-25-66-33l0 35-65 0 0-35q-43 9-75 40-31 32-41 75l35 0 0 64-35 0q10 44 41 75 32 32 75 42l0-36 65 0 0 36q37-9 66-33l47 45q-49 43-113 54m111-481q-66-36-145-36-77 0-144 36l-47-47q87-54 191-54 105 0 193 54l-48 47m171 248l-75 0 0 2 73 91 2 0 0-93m0-50l0-59 64 0 0 59 38 0 0 50-38 0 0 162-66 0-124-151 0-61 126 0m-257 69l-40-40 31-30 40 39 37-36 29 28-38 37 40 41-31 30-39-40-38 37-28-28 37-38" horiz-adv-x="1001" />

<glyph glyph-name="starting" unicode="&#xe812;" d="M868 9l0 681q0 11-8 19-8 8-19 8l-628 0q-11 0-19-8-7-8-7-19l0-201 64 0 0 164 552 0 0-606-552 0 0 137-64 0 0-175q0-11 7-19 8-8 19-8l628 0q11 0 19 8 8 8 8 19m-776 841l817 0q92 0 92-92l0-816q0-92-92-92l-817 0q-92 0-92 92l0 816q0 92 92 92m258-733l115 0 215 234-213 234-116 0 172-189-390 0 0-91 390 0-173-188" horiz-adv-x="1001" />

<glyph glyph-name="stash-point-empty" unicode="&#xe813;" d="M793 717l-16 0q-11 0-21-9-9-9-10-23l0-623-491 0 0 623q0 14-10 23-9 9-21 9l-17 0q-13 0-22-9-9-9-9-23l0-670q0-14 9-24 9-9 22-9l585 0q13 0 22 9 11 10 11 24l0 670q0 14-11 23-9 9-21 9m-701 133l817 0q92 0 92-92l0-816q0-92-92-92l-817 0q-92 0-92 92l0 816q0 92 92 92m249-693q0-13 9-21 9-9 23-9l254 0q14 0 23 9 10 8 10 21l0 17q0 12-10 22-9 10-23 10l-254 0q-14 0-23-10-9-10-9-22l0-17" horiz-adv-x="1001" />

<glyph glyph-name="stash-point-full" unicode="&#xe814;" d="M92 850l817 0q92 0 92-92l0-816q0-92-92-92l-817 0q-92 0-92 92l0 816q0 92 92 92m701-133l-16 0q-11 0-21-9-9-9-10-23l0-623-491 0 0 623q0 14-10 23-9 9-21 9l-17 0q-13 0-22-9-9-9-9-23l0-670q0-14 9-24 9-9 22-9l585 0q13 0 22 9 11 10 11 24l0 670q0 14-11 23-9 9-21 9m-452-560q0-13 9-21 9-9 23-9l254 0q14 0 23 9 10 8 10 21l0 17 0 1 0 30 0 1 0 2 0 36 0 2 0 2 0 35 0 2 0 2 0 15 0 2 0 2 0 18 0 2 0 16 0 2 0 1 0 17 0 1 0 18 0 2 0 2 0 15 0 2 0 2 0 16 0 2 0 37 0 2 0 2 0 36 0 1 0 2 0 29q0 13-10 22-9 10-23 11l-254 0q-14-1-23-11-9-9-9-22l0-29 0-2 0-1 0-36 0-2 0-2 0-35 0-2 0-2 0-16 0-2 0-17 0-2 0-2 0-16 0-2 0-18 0-1 0-18 0-2 0-18 0-2 0-2 0-15 0-2 0-37 0-2 0-2 0-36 0-2 0-1 0-30 0-1 0-17" horiz-adv-x="1001" />

<glyph glyph-name="stats" unicode="&#xe815;" d="M92 850l817 0q92 0 92-92l0-816q0-92-92-92l-817 0q-92 0-92 92l0 816q0 92 92 92m714-531l-337 0 0 336q-139 0-238-99-98-98-98-237 0-140 98-238 99-99 238-99 140 0 238 99 99 98 99 238m-275 398l0-337 337 0q0 140-99 238-98 99-238 99m65-73q74-18 128-71 52-54 71-127l-199 0 0 198" horiz-adv-x="1001" />

<glyph glyph-name="steady-aim" unicode="&#xe816;" d="M92 850l817 0q92 0 92-92l0-816q0-92-92-92l-817 0q-92 0-92 92l0 816q0 92 92 92m216-187l48-47q67 36 144 36 77 0 145-36l47 47q-88 54-192 54-104 0-192-54m447-282l-41 0q-11 71-61 121-51 50-120 62l0 41-65 0 0-41q-70-12-120-62-50-50-62-121l-41 0 0-64 41 0q12-69 62-120 50-51 120-61l0-42 65 0 0 42q69 10 120 61 50 51 61 120l41 0 0 64m-222-179l0 35-65 0 0-35q-43 9-75 40-32 32-41 75l35 0 0 64-35 0q9 44 41 75 32 32 75 42l0-36 65 0 0 36q43-10 75-42 31-31 40-75l-36 0 0-64 36 0q-9-43-40-75-32-31-75-40m159-166l-47 47q-68-36-145-36-77 0-144 36l-48-47q88-54 192-54 104 0 192 54m-494 314q0 77 36 144l-47 47q-54-87-54-191 0-105 54-192l47 48q-36 66-36 144m568 144q37-67 37-144 0-77-37-144l47-48q55 88 55 192 0 103-55 191l-47-47" horiz-adv-x="1001" />

<glyph glyph-name="steady-aim-2" unicode="&#xe817;" d="M92 850l817 0q92 0 92-92l0-816q0-92-92-92l-817 0q-92 0-92 92l0 816q0 92 92 92m216-187l48-47q67 36 144 36 77 0 145-36l47 47q-88 54-192 54-104 0-192-54m226-99l0 41-65 0 0-41q-69-12-121-62-49-50-60-121l-42 0 0-64 42 0q11-69 60-120 52-51 121-61l0-42 65 0 0 42q65 10 113 54l-47 45q-29-25-66-33l0 35-65 0 0-35q-43 9-75 40-31 32-41 75l35 0 0 64-35 0q10 44 41 75 32 32 75 42l0-36 65 0 0 36q37-9 66-33l47 45q-49 43-113 54m158-528l-47 47q-68-36-145-36-77 0-144 36l-48-47q88-54 192-54 104 0 192 54m-494 314q0 77 36 144l-47 47q-54-87-54-191 0-105 54-192l47 48q-36 66-36 144m493-129l209 0 0 54-117 0 16 15 18 14 20 13 18 14 17 15 14 17 10 20 3 25q0 18-6 34-6 16-19 27-12 12-31 19l-43 6q-32 0-53-9-22-11-33-27-10-14-14-29-4-16-4-40l62 0 2 24 10 16q10 12 29 12 17 0 25-9 9-10 9-26 0-10-5-17l-12-16-38-29-39-30q-10-8-19-18-8-9-14-21-7-10-10-24-4-14-5-30m-132 129l-40-40 31-30 40 39 37-36 29 28-38 37 40 41-31 30-39-40-38 37-28-28 37-38" horiz-adv-x="1001" />

<glyph glyph-name="steady-aim-3" unicode="&#xe818;" d="M92 850l817 0q92 0 92-92l0-816q0-92-92-92l-817 0q-92 0-92 92l0 816q0 92 92 92m216-187l48-47q67 36 144 36 77 0 145-36l47 47q-88 54-192 54-104 0-192-54m226-99l0 41-65 0 0-41q-69-12-121-62-49-50-60-121l-42 0 0-64 42 0q11-69 60-120 52-51 121-61l0-42 65 0 0 42q65 10 113 54l-47 45q-29-25-66-33l0 35-65 0 0-35q-43 9-75 40-31 32-41 75l35 0 0 64-35 0q10 44 41 75 32 32 75 42l0-36 65 0 0 36q37-9 66-33l47 45q-49 43-113 54m158-528l-47 47q-68-36-145-36-77 0-144 36l-48-47q88-54 192-54 104 0 192 54m-494 314q0 77 36 144l-47 47q-54-87-54-191 0-105 54-192l47 48q-36 66-36 144m605-133l41 6q19 4 34 15 14 10 23 26 8 16 8 38 0 27-12 43-14 16-36 22l0 1q18 7 29 21 12 12 12 33 0 17-7 32-8 14-21 23-13 10-31 16l-41 4-44-6-33-19q-13-12-20-29-8-16-8-37l61 0q2 18 12 30 10 12 32 12 16 0 26-8 9-9 9-22 0-16-11-24-12-7-31-7l-14 0 0-46 16 0q23 0 34-10 12-8 12-26 0-17-11-27-11-11-31-11-25 0-37 14-11 14-13 36l-62 0q0-48 30-74 14-12 35-19l49-7m-244 133l-40-40 31-30 40 39 37-36 29 28-38 37 40 41-31 30-39-40-38 37-28-28 37-38" horiz-adv-x="1001" />

<glyph glyph-name="steady-aim-4" unicode="&#xe819;" d="M92 850l817 0q92 0 92-92l0-816q0-92-92-92l-817 0q-92 0-92 92l0 816q0 92 92 92m216-187l48-47q67 36 144 36 77 0 145-36l47 47q-88 54-192 54-104 0-192-54m226-99l0 41-65 0 0-41q-69-12-121-62-49-50-60-121l-42 0 0-64 42 0q11-69 60-120 52-51 121-61l0-42 65 0 0 42q65 10 113 54l-47 45q-29-25-66-33l0 35-65 0 0-35q-43 9-75 40-31 32-41 75l35 0 0 64-35 0q10 44 41 75 32 32 75 42l0-36 65 0 0 36q37-9 66-33l47 45q-49 43-113 54m158-528l-47 47q-68-36-145-36-77 0-144 36l-48-47q88-54 192-54 104 0 192 54m-494 314q0 77 36 144l-47 47q-54-87-54-191 0-105 54-192l47 48q-36 66-36 144m618-19l-75 0 0 2 73 91 2 0 0-93m0-50l0-59 64 0 0 59 38 0 0 50-38 0 0 162-66 0-124-151 0-61 126 0m-257 69l-40-40 31-30 40 39 37-36 29 28-38 37 40 41-31 30-39-40-38 37-28-28 37-38" horiz-adv-x="1001" />

<glyph glyph-name="story" unicode="&#xe81a;" d="M92 850l817 0q92 0 92-92l0-816q0-92-92-92l-817 0q-92 0-92 92l0 816q0 92 92 92m601-334q13-65 17-145l158 0q-4 76-40 145l-135 0m-44 0l-297 0q-15-66-18-145l332 0q-2 79-17 145m-13 43q-22 73-57 115-37 43-79 43-41 0-78-43-35-42-58-115l272 0m46 0l121 0q-35 49-83 86-49 37-108 55 44-53 70-141m-509-43q-36-69-40-145l158 0q3 80 17 145l-135 0m146 43q25 88 69 141-58-18-108-55-47-37-82-86l121 0m347-231l-332 0q3-79 18-144l297 0q15 65 17 144m-302-188q23-73 58-115 37-43 78-43 42 0 79 43 35 42 57 115l-272 0m-231 188q4-75 40-144l135 0q-14 65-17 144l-158 0m186-188l-121 0q35-48 82-85 50-36 108-55-44 53-69 140m374 44l135 0q36 69 40 144l-158 0q-4-79-17-144m-11-44q-26-87-70-140 59 19 108 55 48 37 83 85l-121 0" horiz-adv-x="1001" />

<glyph glyph-name="subsonic" unicode="&#xe81b;" d="M500 617q-104 0-201-39-65-26-119-67l-47-40 101-108q53 51 121 78 70 28 145 28 76 0 145-28 68-27 121-78l102 108q-74 69-167 107-96 39-201 39m0-201q-65 0-125-25-58-24-103-67l85-91q60 58 143 58 83 0 144-58l85 91q-46 43-104 67-59 25-125 25m-408 434l817 0q92 0 92-92l0-816q0-92-92-92l-817 0q-92 0-92 92l0 816q0 92 92 92m302-656l106-112 106 112q-44 43-106 43-61 0-106-43" horiz-adv-x="1001" />

<glyph glyph-name="suitcase" unicode="&#xe81c;" d="M92 850l817 0q92 0 92-92l0-816q0-92-92-92l-817 0q-92 0-92 92l0 816q0 92 92 92m622-814l0 558-42 0 0 58q0 27-19 46-19 19-46 19l-214 0q-26 0-45-17-19-18-19-41l0-65-46 0 0-558 431 0 0-27q0-11 10-19 7-8 17-8 12 0 20 8 8 8 8 19l0 27 1 0q40 0 69 29 29 29 29 69l0 363q0 40-29 68-29 29-69 29l-1 0 0-558-55 0m-321 624l214 0 0-66-214 0 0 66m-164-67q-39 0-68-28-28-28-28-68l0-363q0-40 28-69 29-28 68-28l0 556m54-557l-54 0 0-27q0-11 8-19 8-8 19-8 12 0 20 8 7 8 7 19l0 27" horiz-adv-x="1001" />

<glyph glyph-name="suppressor" unicode="&#xe81d;" d="M92 850l817 0q92 0 92-92l0-816q0-92-92-92l-817 0q-92 0-92 92l0 816q0 92 92 92m371-443q16 6 26 20 10 14 10 32l-3 16-75 242-288 0 0-527 182 0q39 0 66 27 28 28 28 67l0 103 54 20m363-258q-18 0-30-13-11-10-12-27l0 18q0 17-12 30-13 12-30 12-17 0-30-12-11-13-12-29l0 19q0 17-12 30-13 12-30 12-17 0-29-12-12-12-13-29l0 160q0 17-12 29-12 13-30 13-17 0-30-13-12-12-12-29l0-198q-1 20-15 34-15 16-37 16l0-178 388 0 0 125q0 18-13 29-12 13-29 13" horiz-adv-x="1001" />

<glyph glyph-name="tag" unicode="&#xe81e;" d="M92 850l817 0q92 0 92-92l0-816q0-92-92-92l-817 0q-92 0-92 92l0 816q0 92 92 92m44-285l-3-146 437-437 298 299-437 436-146-3-149-149m239-89q-19-20-46-20-27 0-47 20-19 19-19 46 0 27 19 46 20 19 47 19 27 0 46-19 19-19 19-46 0-27-19-46" horiz-adv-x="1001" />

<glyph glyph-name="target" unicode="&#xe81f;" d="M92 850l817 0q92 0 92-92l0-816q0-92-92-92l-817 0q-92 0-92 92l0 816q0 92 92 92m776-469l-40 0q-11 118-95 202-83 84-202 95l0 39-62 0 0-39q-118-11-202-95-84-84-94-202l-40 0 0-62 40 0q10-119 94-202 84-84 202-95l0-40 62 0 0 40q119 11 202 95 84 83 95 202l40 0 0 62m-337-295l0 86-62 0 0-86q-92 10-157 75-66 66-76 158l86 0 0 62-86 0q10 92 76 157 65 66 157 76l0-86 62 0 0 86q92-10 158-76 65-65 75-157l-86 0 0-62 86 0q-10-92-75-158-66-65-158-75" horiz-adv-x="1001" />

<glyph glyph-name="timed" unicode="&#xe820;" d="M92 850l817 0q92 0 92-92l0-816q0-92-92-92l-817 0q-92 0-92 92l0 816q0 92 92 92m695-365q20 18 20 46 0 27-20 46-19 18-46 18-27 0-45-18l-32-32q-60 38-133 46l0 62 42 0q14 0 23 9 9 10 9 23 0 14-9 24-9 9-23 9l-147 0q-14 0-24-9-9-10-9-24 0-13 9-23 10-9 24-9l41 0 0-62q-115-12-194-98-79-87-79-205 0-127 89-216 90-90 216-90 127 0 216 90 89 89 89 216 0 90-48 165l31 32m-288-258q-25 0-43 18-18 18-18 43 0 20 11 35 11 16 29 22l0 132 6 15q6 7 15 7 9 0 15-7 7-7 7-15l0-132q18-6 28-22 11-15 11-35 0-25-18-43-17-18-43-18" horiz-adv-x="1001" />

<glyph glyph-name="toggle-left" unicode="&#xe821;" d="M844 695q-22 22-55 22l-576 0q-33 0-56-22-24-23-24-56l0-578q0-33 24-55 23-24 56-24l576 0q33 0 55 24 24 22 24 55l0 578q0 33-24 56m-222-103q30-14 30-48l0-388q0-34-30-48-32-16-58 6l-244 194q-20 17-20 41 0 26 20 43l244 193q26 21 58 7m-530 258l817 0q92 0 92-92l0-816q0-92-92-92l-817 0q-92 0-92 92l0 816q0 92 92 92" horiz-adv-x="1001" />

<glyph glyph-name="toggle-right" unicode="&#xe822;" d="M844 695q-23 22-56 22l-576 0q-33 0-55-22-24-23-24-56l0-578q0-33 24-55 22-24 55-24l576 0q33 0 56 24 24 22 24 55l0 578q0 33-24 56m-752 155l817 0q92 0 92-92l0-816q0-92-92-92l-817 0q-92 0-92 92l0 816q0 92 92 92m609-501q0-24-20-41l-244-194q-26-22-58-6-31 14-31 48l0 388q0 34 31 48 32 14 58-7l244-193q20-17 20-43" horiz-adv-x="1001" />

<glyph glyph-name="tool" unicode="&#xe823;" d="M92 850l817 0q92 0 92-92l0-816q0-92-92-92l-817 0q-92 0-92 92l0 816q0 92 92 92m570-430q41-20 82-14 43 5 77 39 27 27 39 62 11 36 6 72l-7 10-13-3-88-78q-9-9-59 41-50 50-41 59l79 87q4 6 2 14-3 5-10 7-36 5-71-7-35-11-62-37-32-32-39-77-7-44 13-84l-232-231q-41 20-82 14-43-5-76-38-27-27-40-64-11-34-6-71l8-9 12 2 88 78q9 8 60-40 49-50 40-59l-78-89q-5-5-3-12l10-8q36-5 71 6 36 12 62 39 32 31 40 76 6 44-13 84l231 231" horiz-adv-x="1001" />

<glyph glyph-name="trash" unicode="&#xe824;" d="M92 850l817 0q92 0 92-92l0-816q0-92-92-92l-817 0q-92 0-92 92l0 816q0 92 92 92m207-383l-1 0 451 116-20 74-7 9-13 2-105-27-8 29q-6 25-27 36-21 13-46 6l-117-30q-23-6-36-28-13-21-6-46l7-29-106-27-10-8-1-13 19-72 26 8 0-437q0-18 14-32 14-14 33-14l343 0q19 0 33 14 13 14 13 32l0 437-436 0m120 157l2 1 118 31 0-1 7-30-119-32-8 31m192-239q0 11 9 19 7 9 19 9 11 0 19-9 8-8 8-19l0-308q0-11-8-20-8-8-19-8-12 0-19 8-9 9-9 20l0 308m-120 0q0 11 8 19 8 9 19 9 11 0 20-9 8-8 8-19l0-308q0-11-8-20-9-8-20-8-11 0-19 8-8 9-8 20l0 308m-120 0q0 11 8 19 8 9 20 9 10 0 18-9 9-8 9-19l0-308q0-11-9-20-8-8-18-8-12 0-20 8-8 9-8 20l0 308" horiz-adv-x="1001" />

<glyph glyph-name="tutorial" unicode="&#xe825;" d="M468 338l-28 27 209 199 13-12-194-214 412 0 0 379-471 0 0-319-79 78q-8 8-20 8l-134 0q-12 0-21-9-9-9-9-21l0-432q0-17 10-28 12-12 28-12 16 0 27 12 12 11 12 28l0 204 40 0 0-200q0-16 12-27 11-12 27-12 16 0 28 12 10 11 10 27l0 343 77-76q9-10 24-10 14 0 24 10 9 9 10 22 1 13-7 23m-376 512l817 0q92 0 92-92l0-816q0-92-92-92l-817 0q-92 0-92 92l0 816q0 92 92 92m152-329q40 0 69 29 28 28 28 69 0 41-28 69-29 29-69 29-41 0-69-29-29-28-29-69 0-41 29-69 28-29 69-29" horiz-adv-x="1001" />

<glyph glyph-name="unlocked" unicode="&#xe826;" d="M610 548l-24-24-138 138q-55 54-131 54-75 0-129-54-54-54-54-129 0-76 54-131l42-42 66 65-43 43q-26 27-26 65 0 37 26 64 27 27 64 27 39 0 65-27l139-139-219-218q-8-8-8-20 0-11 8-19l210-210q9-9 20-9 12 0 20 9l307 307q9 8 9 20 0 11-9 20l-210 210q-8 8-19 8-12 0-20-8m-518 302l817 0q92 0 92-92l0-816q0-92-92-92l-817 0q-92 0-92 92l0 816q0 92 92 92m509-562l57-56q8-8 8-20 0-11-8-20-9-8-20-8-12 0-20 8l-56 57q-31-7-51 14-16 16-16 39 0 22 16 37 15 16 37 16 23 0 39-16 21-20 14-51" horiz-adv-x="1001" />

<glyph glyph-name="versatile-scope" unicode="&#xe827;" d="M444 717q-129 0-219-91-92-91-92-220 0-128 92-219 90-91 219-91 129 0 219 91 91 90 91 219 0 129-91 220-90 91-219 91m26-250l50-74-54-82 54 0 28 47 26-47 57 0-53 82 46 74-51 0-23-41 0 0-23 41-57 0m-26 174q97 0 166-68 69-70 69-167 0-96-69-166-69-69-166-69-97 0-167 69-68 70-68 166 0 97 68 167 70 68 167 68m-352 209l817 0q92 0 92-92l0-816q0-92-92-92l-817 0q-92 0-92 92l0 816q0 92 92 92m245-539l38-5 31 4q15 5 27 12 11 8 17 21 7 11 7 28 0 21-10 34-12 13-28 17l0 1q14 4 23 16 9 9 9 25 0 14-6 25l-16 19-23 11-32 3-34-4q-17-6-26-15l-15-22-6-28 47 0q1 13 9 23 8 9 24 9 14 0 20-7 8-6 8-17 0-12-9-18-9-6-23-6l-12 0 0-35 12 0q19 0 27-8 10-5 10-20 0-13-9-20-9-9-24-9-19 0-29 11-8 10-10 27l-48 0q0-36 24-56 9-10 27-16m402-103l-97-97 129-129 97 98-129 128" horiz-adv-x="1001" />

<glyph glyph-name="variable" unicode="&#xe828;" d="M92 850l817 0q92 0 92-92l0-816q0-92-92-92l-817 0q-92 0-92 92l0 816q0 92 92 92m352-133q-129 0-219-91-92-91-92-220 0-128 92-219 90-91 219-91 129 0 219 91 91 90 91 219 0 129-91 220-91 91-219 91m21-249l49-74-53-82 53 0 29 47 0 0 25-47 58 0-53 82 45 74-51 0-22-41-1 0-22 41-57 0m-21 173q97 0 166-68 69-70 69-167 0-96-69-166-69-69-166-69-97 0-167 69-68 70-68 166 0 97 68 167 70 68 167 68m-152-304l-3-25 161 0 0 42-90 0 0 1 69 55 10 13 8 16 3 19q0 14-6 26-4 11-14 20-10 10-24 15l-33 5q-25 0-41-8-17-7-26-21-6-8-10-22l-4-30 48 0 2 18 7 12q8 10 23 10 13 0 20-7 7-8 7-20 0-6-4-14l-10-12-29-22-30-23-15-14-11-16-8-18m447-129l-97-97 129-129 97 97-129 129" horiz-adv-x="1001" />

<glyph glyph-name="versatile-scope-1" unicode="&#xe829;" d="M444 641q97 0 166-68 69-70 69-167 0-96-69-166-69-69-166-69-97 0-167 69-68 70-68 166 0 97 68 167 70 68 167 68m0 76q-129 0-219-91-92-91-92-220 0-128 92-219 90-91 219-91 129 0 219 91 91 90 91 219 0 129-91 220-90 91-219 91m-352 133l817 0q92 0 92-92l0-816q0-92-92-92l-817 0q-92 0-92 92l0 816q0 92 92 92m647-642l-97-97 129-129 97 98-129 128" horiz-adv-x="1001" />

<glyph glyph-name="versatile-scope-2" unicode="&#xe82a;" d="M92 850l817 0q92 0 92-92l0-816q0-92-92-92l-817 0q-92 0-92 92l0 816q0 92 92 92m303-565l209 0 0 55-117 0 0 1 16 13 18 15 19 13 18 14 17 15 15 16 10 21 3 25q0 18-7 34-5 15-19 27l-30 19-43 6q-33 0-54-10-21-10-33-27-9-13-13-28l-4-40 61 0 3 23 9 17q10 12 29 12 17 0 26-9 9-10 9-26 0-10-5-18l-13-15q-15-14-37-29l-39-30-19-18-15-20-9-25-5-31m49 432q-129 0-219-91-92-91-92-220 0-128 92-219 90-91 219-91 129 0 219 91 91 90 91 219 0 129-91 220-90 91-219 91m0-76q97 0 166-68 69-70 69-167 0-96-69-166-69-69-166-69-97 0-167 69-68 70-68 166 0 97 68 167 70 68 167 68m-167-225l-39-41 31-30 39 40 38-38 28 29-37 38 40 39-31 31-40-40-37 37-29-29 37-36m462-208l-97-97 129-129 97 98-129 128" horiz-adv-x="1001" />

<glyph glyph-name="versatile-scope-3" unicode="&#xe82b;" d="M92 850l817 0q92 0 92-92l0-816q0-92-92-92l-817 0q-92 0-92 92l0 816q0 92 92 92m417-573l40 6q19 4 34 15 15 10 23 26 9 16 9 38 0 27-13 43-13 16-36 22l0 1q18 7 30 20 12 13 12 34 0 17-8 32-7 14-21 24-13 9-31 14l-40 5-45-6-32-19q-14-12-21-29-7-16-7-36l61 0q1 18 11 29 11 12 32 12 16 0 26-8 9-9 9-23 0-15-11-23-12-8-30-8l-14 0 0-46 15 0q23 0 35-9 11-8 11-26 0-17-11-27-10-10-31-10-25 0-37 13-11 14-12 36l-63 0q0-48 31-74 13-12 35-19l49-7m-65 440q-129 0-219-91-92-91-92-220 0-128 92-219 90-91 219-91 129 0 219 91 91 90 91 219 0 129-91 220-90 91-219 91m0-76q97 0 166-68 69-70 69-167 0-96-69-166-69-69-166-69-97 0-167 69-68 70-68 166 0 97 68 167 70 68 167 68m-167-225l-39-41 31-30 39 40 38-38 28 29-37 38 40 39-31 31-40-40-37 37-29-29 37-36m462-208l-97-97 129-129 97 98-129 128" horiz-adv-x="1001" />

<glyph glyph-name="versatile-scope-4" unicode="&#xe82c;" d="M519 339l0-60 64 0 0 60 39 0 0 50-39 0 0 162-65 0-124-151 0-61 125 0m-75 302q97 0 166-68 69-70 69-167 0-96-69-166-69-69-166-69-97 0-167 69-68 70-68 166 0 97 68 167 70 68 167 68m75-252l-75 0 0 1 74 91 1 0 0-92m-75 328q-129 0-219-91-92-91-92-220 0-128 92-219 90-91 219-91 129 0 219 91 91 90 91 219 0 129-91 220-90 91-219 91m-352 133l817 0q92 0 92-92l0-816q0-92-92-92l-817 0q-92 0-92 92l0 816q0 92 92 92m185-434l-39-41 31-30 39 40 38-38 28 29-37 38 40 39-31 31-40-40-37 37-29-29 37-36m462-208l-97-97 129-129 97 98-129 128" horiz-adv-x="1001" />

<glyph glyph-name="versatile-scope-extended" unicode="&#xe82d;" d="M92 850l817 0q92 0 92-92l0-816q0-92-92-92l-817 0q-92 0-92 92l0 816q0 92 92 92m429-457l-56-83 56 0 27 46 1 0 26-46 58 0-54 83 47 74-52 0-22-41-1 0-23 41-57 0 50-74m-77 248q97 0 166-68 69-70 69-167 0-96-69-166-69-69-166-69-97 0-167 69-68 70-68 166 0 97 68 167 70 68 167 68m0 76q-129 0-219-91-92-91-92-220 0-128 92-219 90-91 219-91 129 0 219 91 91 90 91 219 0 129-91 220-90 91-219 91m-66-321l-59 0 0 1 58 71 1 0 0-72m0-39l0-47 50 0 0 47 31 0 0 39-31 0 0 126-51 0-97-117 0-48 98 0m361-149l-97-97 129-129 97 98-129 128" horiz-adv-x="1001" />

<glyph glyph-name="versus" unicode="&#xe82e;" d="M92 850l817 0q92 0 92-92l0-816q0-92-92-92l-817 0q-92 0-92 92l0 816q0 92 92 92m497-386l-33 27-6 0-10 19 4 9 5 48q10 14 15 30l6 27q1 17-2 17l-8-2-3-3 3 17q1 23-7 45-9 26-34 43-25 17-49 17-26 0-49-17-26-17-35-43-7-22-7-45l4-17q-6 7-12 5-3 0-2-17l6-27 15-30 2-22 3-26 5-9-11-19-6 0-187-164-2-205q1-16 11-18 12-4 27 12l357 348 0 0 0 1 0-1m-176-228l33-27 6 0 10-19-4-9-4-26-2-22-5-10-10-20-6-27q0-17 3-18 5-1 10 6l-2-18q-2-21 6-44 10-26 35-43 24-18 49-18 25 0 49 18 25 17 35 43 7 23 6 44l-3 18 3-4 8-2q4 1 2 18l-6 27-9 20-5 10-6 48-4 9 10 19 6 0 187 164 3 205q-1 15-12 19-11 2-26-14l-357-347-1 0 0-1 1 1m176 228l0 1 0-1 0 0m-176-228l-1-1 0 1 1 0" horiz-adv-x="1001" />

<glyph glyph-name="wall-piercing-ammo" unicode="&#xe82f;" d="M92 850l817 0q92 0 92-92l0-816q0-92-92-92l-817 0q-92 0-92 92l0 816q0 92 92 92m816-423l-13 0 0-8-16 0-9 8-2 0 0-156 2 0 9 9 16 0 0-9 13 0 4 8 0 141-4 7m-600-24l-196-40-24-10 0-7 24-9 196-41 119 0 0-4 15 0 0 4 9 0 0-4 20 0 43-21 332 0 0 156-332 0-43-19-20 0 0-5-9 0 0 5-15 0 0-5-119 0m194 128l0 221-409 0 0-338 409 117m-409-246l0-338 409 0 0 222-409 116" horiz-adv-x="1001" />

<glyph glyph-name="warning" unicode="&#xe830;" d="M522 213l-43 0-23 162 0 89 88 0 0-89-22-162m339-170l-330 649q-12 25-31 25-17 0-30-25l-330-649q-13-25-2-43 11-18 40-18l645 0q29 0 40 18 11 17-2 43m-769 807l817 0q92 0 92-92l0-816q0-92-92-92l-817 0q-92 0-92 92l0 816q0 92 92 92m364-761l0 89 88 0 0-89-88 0" horiz-adv-x="1001" />

<glyph glyph-name="witness" unicode="&#xe831;" d="M92 850l817 0q92 0 92-92l0-816q0-92-92-92l-817 0q-92 0-92 92l0 816q0 92 92 92m496-410q-26 0-44 18-17 18-17 43 0 26 17 43 18 18 44 18 25 0 43-18 19-18 19-43 0-25-19-43-18-18-43-18m-88 277q-90 0-154-63-64-63-64-153 0-90 64-154 64-63 154-63 91 0 154 63 64 64 64 154 0 90-64 153-63 63-154 63m-88-277q-25 0-43 18-18 18-18 43 0 25 18 43 18 18 43 18 26 0 44-18 17-17 17-43 0-25-17-43-18-18-44-18m456-302q0 46-33 79-34 33-80 33l-509 0q-47 0-80-33-33-33-33-79l0-156 115 0 0 66q0 19 13 33 15 13 34 13l4 0 0-112 402 0 0 112 5 0q18 0 33-13 13-14 13-33l0-66 116 0 0 156" horiz-adv-x="1001" />

<glyph glyph-name="add-to-list" unicode="&#xe832;" d="M92 850l817 0q92 0 92-92l0-816q0-92-92-92l-817 0q-92 0-92 92l0 816q0 92 92 92m42-136l0-86 252 0q57 23 116 23 62 0 115-23l250 0 0 86-733 0m524-407l-117 0 0-118-83 0 0 118-118 0 0 83 118 0 0 117 83 0 0-117 117 0 0-83m-158 292q-103 0-176-74-74-73-74-177 0-103 73-177 73-72 177-72 104 0 177 72 73 74 73 177 0 104-73 177-74 74-177 74m303-251l-3-41 66 0 0 86-66 0 3-45m-24 120l88 0 0 86-143 0q36-42 55-86m-581-120l2 45-66 0 0-86 66 0-2 41m81 206l-145 0 0-86 89 0q22 51 56 86m-57-322l-88 0 0-86 142 0q-38 42-54 86m278-186q-64 0-121 25l-245 0 0-87 732 0 0 87-246 0q-60-25-120-25m225 100l141 0 0 86-88 0q-20-49-53-86" horiz-adv-x="1001" />

<glyph glyph-name="ammo" unicode="&#xe833;" d="M92 850l817 0q92 0 92-92l0-816q0-92-92-92l-817 0q-92 0-92 92l0 816q0 92 92 92m381-618l12 0 20 12 26 10q26 13 26 23 0 10-26 23l-26 10-20 11-12 0 0 30 12 0 20 12 26 9q26 13 26 23 0 11-26 23l-26 9-20 12-12 0 0 56q0 8-7 15-5 6-14 6l-265 0q-9 0-16-6-6-6-6-15l0-418-33 0 0-64q0-14 10-23 8-10 22-10l309 0q14 0 23 10 9 9 9 23l0 64-32 0 0 38 12 0 20 12 26 9q26 13 26 23 0 10-26 22l-26 11-20 12-12 0 0 28m87 286l110 0 0-116 88 0 0 116 108 0 0 83-108 0 0 116-88 0 0-116-110 0 0-83" horiz-adv-x="1001" />

<glyph glyph-name="arrow-down" unicode="&#xe834;" d="M92 850l817 0q92 0 92-92l0-816q0-92-92-92l-817 0q-92 0-92 92l0 816q0 92 92 92m776-533l0 180-297-269 0 489-142 0 0-489-296 270 0-180 367-336 368 335" horiz-adv-x="1001" />

<glyph glyph-name="arrow-left" unicode="&#xe835;" d="M92 850l817 0q92 0 92-92l0-816q0-92-92-92l-817 0q-92 0-92 92l0 816q0 92 92 92m287-429l268 296-180 0-334-367 336-368 180 0-270 297 489 0 0 142-489 0" horiz-adv-x="1001" />

<glyph glyph-name="arrow-right" unicode="&#xe836;" d="M92 850l817 0q92 0 92-92l0-816q0-92-92-92l-817 0q-92 0-92 92l0 816q0 92 92 92m776-500l-335 367-179 0 268-296-489 0 0-142 489 0-270-297 180 0 336 368" horiz-adv-x="1001" />

<glyph glyph-name="arrow-up" unicode="&#xe837;" d="M92 850l817 0q92 0 92-92l0-816q0-92-92-92l-817 0q-92 0-92 92l0 816q0 92 92 92m408-133l-367-334 0-180 296 269 0-490 142 0 0 490 297-270 0 179-368 336" horiz-adv-x="1001" />

<glyph glyph-name="assault-rifle" unicode="&#xe838;" d="M92 850l817 0q92 0 92-92l0-816q0-92-92-92l-817 0q-92 0-92 92l0 816q0 92 92 92m828-741l-210 147 22 31-70 49 19 35-152 106-27-29-82 57-10-14-27 19 18 27-152 91-5 71-1 3q-10 14-25 14-15 0-22-12l-31-42-60 43-24-35 128-89-11-17 142-114 18 26 28-20-30-42 21-14-18-25 8-6q-37-25-96-41l27-99q98 27 157 80l15-11 17 25 82-58-50-119 79-55 37 88 168-189q8-8 19-6 10 1 17 9l81 116m-706 567l3-50-25 18 22 32" horiz-adv-x="1001" />

<glyph glyph-name="audio" unicode="&#xe839;" d="M92 850l817 0q92 0 92-92l0-816q0-92-92-92l-817 0q-92 0-92 92l0 816q0 92 92 92m547-145l-301-251 0-209 301-250q10-9 23-4 12 5 12 18l0 681q0 13-12 18-13 5-23-3m128-153l84 54q12 8 15 24 5 15-4 28-9 13-24 17-15 3-28-5l-84-54q-13-8-16-23-4-15 4-29 12-17 33-17 11 0 20 5m101-203q0 16-11 27-11 11-27 11l-84 0q-16 0-27-11-11-11-11-27 0-15 11-26 11-11 27-11l84 0q16 0 27 11 11 11 11 26m-596-126q8 0 14 6 6 6 6 14l0 213q0 9-6 14-6 6-14 6l-119 0-14-6-6-14 0-213q0-8 6-14l14-6 119 0m590-182q9 13 4 28-3 16-15 24l-85 54q-13 8-28 5-15-3-24-17-8-13-5-28 3-15 17-24l84-53q10-7 20-7 21 0 32 18" horiz-adv-x="1001" />

<glyph glyph-name="background" unicode="&#xe83a;" d="M747 524l-492 0 0 65 492 0 0-65m0-134l-492 0 0 65 492 0 0-65m45 327l-585 0q-13 0-22-9-9-9-9-23l0-670q0-14 9-24 9-9 22-9l585 0q13 0 22 9 11 10 11 24l0 670q0 14-11 23-9 9-22 9m-700 133l817 0q92 0 92-92l0-816q0-92-92-92l-817 0q-92 0-92 92l0 816q0 92 92 92m586-727l-423 0 0 65 423 0 0-65m69 134l-492 0 0 64 492 0 0-64" horiz-adv-x="1001" />

<glyph glyph-name="benchmarks" unicode="&#xe83b;" d="M92 850l817 0q92 0 92-92l0-816q0-92-92-92l-817 0q-92 0-92 92l0 816q0 92 92 92m557-211q13 0 23-9 9-10 9-23 0-14-9-23-10-10-23-10-13 0-22 10-9 9-9 23 0 13 9 23 9 9 22 9m-149 39q14 0 23-9 10-9 10-23 0-13-10-22-9-10-23-10-13 0-21 10-10 9-10 22 0 14 10 23 8 9 21 9m70-328q0-29-21-48-20-21-49-21-28 0-48 21-20 19-20 48 0 29 20 48 19 21 48 21l27-5 180 124-140-167 3-21m193 170q13 0 22-8 10-10 10-23 0-14-10-23-9-10-22-10-13 0-22 10-10 9-10 23 0 13 10 23 9 8 22 8m34-202q-13 0-22 9-10 10-10 23 0 13 10 22 9 10 22 10 13 0 23-10 9-9 9-22 0-13-9-23-10-9-23-9m-297 399q-152 0-259-108-108-107-108-259 0-152 108-260 107-108 259-108 153 0 260 108 108 108 108 260 0 152-108 259-107 108-260 108m-327-367q0 13 8 22 9 10 23 10 13 0 23-10 9-9 9-22 0-13-9-23-10-9-23-9-14 0-23 9-8 10-8 23m71 117q-14 0-23 9-9 9-9 23 0 13 9 22 9 9 23 9 13 0 23-9 10-9 10-22 0-14-10-23-10-9-23-9m108 107q-14 0-22 10-9 9-9 23 0 13 9 23 8 9 22 9 13 0 23-9 10-10 10-23 0-14-10-23-10-10-23-10m-108-404q-14 0-23 9-9 9-9 23 0 13 9 22 9 9 23 9 13 0 23-9 10-9 10-22 0-14-10-23-10-9-23-9m514 0q-14 0-23 9-10 9-10 23 0 13 10 22 9 9 23 9 13 0 22-9 9-9 9-22 0-14-9-23-9-9-22-9" horiz-adv-x="1001" />

<glyph glyph-name="bullet-dancer" unicode="&#xe83c;" d="M92 850l817 0q92 0 92-92l0-816q0-92-92-92l-817 0q-92 0-92 92l0 816q0 92 92 92m659-305q0 23-17 40-16 16-40 16-23 0-41-16-16-17-16-40 0-25 16-41 18-17 41-17 24 0 40 17 17 16 17 41m-57 172q-72 0-121-51-51-50-51-121 0-72 51-122 49-51 121-51 72 0 122 51 50 50 50 122 0 71-50 121-50 51-122 51m0-65q45 0 76-31 32-32 32-76 0-45-32-77-31-31-76-31-44 0-76 31-31 32-31 77 0 44 31 76 31 31 76 31m-387 65q-71 0-122-51-50-50-50-121 0-72 50-122 51-51 122-51 72 0 122 51 50 50 50 122 0 71-50 121-50 51-122 51m0-65q45 0 76-31 32-32 32-76 0-45-32-77-31-31-76-31-44 0-76 31-32 32-32 77 0 44 32 76 32 31 76 31m58-107q0 23-17 40-17 16-41 16-23 0-40-16-16-17-16-40 0-25 16-41 17-17 40-17 24 0 41 17 17 16 17 41m0-391q0 25-17 41-17 16-41 16-23 0-40-16-16-16-16-41 0-23 16-39 17-17 40-17 24 0 41 17 17 16 17 39m-58 173q-71 0-122-50-50-51-50-123 0-71 50-121 51-51 122-51 72 0 122 51 50 50 50 121 0 72-50 123-50 50-122 50m0-64q45 0 76-32 32-32 32-77 0-45-32-76-31-30-76-30-44 0-76 30-32 31-32 76 0 45 32 77 32 32 76 32m387 0q45 0 76-32 32-32 32-77 0-45-32-76-31-30-76-30-44 0-76 30-31 31-31 76 0 45 31 77 31 32 76 32m0 64q-72 0-121-50-51-51-51-123 0-71 51-121 49-51 121-51 72 0 122 51 50 50 50 121 0 72-50 123-50 50-122 50m57-173q0 25-17 41-16 16-40 16-23 0-41-16-16-16-16-41 0-23 16-39 18-17 41-17 24 0 40 17 17 16 17 39" horiz-adv-x="1001" />

<glyph glyph-name="challenge" unicode="&#xe83d;" d="M92 850l817 0q92 0 92-92l0-816q0-92-92-92l-817 0q-92 0-92 92l0 816q0 92 92 92m618-378l0 146 104 0 0-83q0-43-30-74-31-31-74-31l-4 0 4 42m0 245l-419 0 0-46-158 0 0-136q0-65 47-112 45-46 111-46l21 2q22-46 61-77 41-32 91-42l0-145-50 0 0-44-86 0 0-89 344 0 0 89-85 0 0 44-50 0 0 145q49 10 90 42 40 31 62 77l21-2q66 0 111 46 47 47 47 112l0 136-158 0 0 46m-524-182l0 83 105 0 0-146 4-42-4 0q-43 0-74 31-31 31-31 74" horiz-adv-x="1001" />

<glyph glyph-name="challenge-category-assassination" unicode="&#xe83e;" d="M92 850l817 0q92 0 92-92l0-816q0-92-92-92l-817 0q-92 0-92 92l0 816q0 92 92 92m736-469q-10 118-95 202-83 83-201 95l0 39-63 0 0-39q-117-12-202-95-84-84-94-202l-40 0 0-64 40 0q10-117 94-201 85-84 202-94l0-40 63 0 0 40q118 10 201 94 85 84 95 201l40 0 0 64-40 0m-141 0q-10 60-53 102-42 42-102 53l0 78q91-11 157-76 65-65 76-157l-78 0m-187-164q-54 0-93 39-38 38-38 94 0 54 38 93 39 38 93 38 55 0 94-38 38-39 38-93 0-56-38-94-39-39-94-39m-31 397l0-78q-59-11-102-53-43-42-53-102l-78 0q11 92 76 157 65 65 157 76m-233-297l78 0q10-59 53-101 43-43 102-53l0-78q-92 11-157 76-65 65-76 156m296-232l0 78q60 10 102 53 43 42 53 101l78 0q-11-91-76-156-66-65-157-76" horiz-adv-x="1001" />

<glyph glyph-name="challenge-category-discovery" unicode="&#xe83f;" d="M500 717q-152 0-259-107-108-108-108-260 0-152 108-260 107-108 259-108 152 0 260 108 108 108 108 260 0 152-108 260-108 107-260 107m33-667l0 59-65 0 0-59q-106 11-182 86-75 76-86 181l60 0 0 65-60 0q11 106 86 182 76 75 182 87l0-61 65 0 0 61q105-12 181-87 75-76 87-182l-60 0 0-65 60 0q-12-105-87-181-76-75-181-86m-11 256q-18-12-39-6-21 6-32 25-11 18-6 39 6 21 25 32 19 10 40 5 21-5 31-24 11-19 5-40-5-21-24-31m-430 544l817 0q92 0 92-92l0-816q0-92-92-92l-817 0q-92 0-92 92l0 816q0 92 92 92m283-295l40-251 199-158-37 252-202 157" horiz-adv-x="1001" />

<glyph glyph-name="challenge-category-item" unicode="&#xe840;" d="M92 850l817 0q92 0 92-92l0-816q0-92-92-92l-817 0q-92 0-92 92l0 816q0 92 92 92m408-201l251-109-251-107-251 107 251 109m366-101l0 1-3 6 0 1-4 6 0 1-6 4 0 1-1 0-5 3-333 143q-14 6-27 0l-335-143-4-3-1 0 0-1-5-4-1-1-3-6-2-1-2-6 0-1-1-8 0-381q0-21 19-30l335-144 5-1 2 0 6-1 5 1 2 0 5 1 335 144 15 13q6 8 6 17l0 381-2 8m-333-483l0 309 268 116 0-309-268-116m-334 425l268-116 0-309-268 116 0 309" horiz-adv-x="1001" />

<glyph glyph-name="check" unicode="&#xe841;" d="M387 9q15-16 36-14 21 2 33 19l407 589q6 9 4 20-2 10-10 16l-87 60q-10 6-19 5-11-2-18-11l-329-479-152 153q-7 8-18 8-10 0-18-7l-75-75q-8-7-8-18 0-10 8-17l246-249m-295 841l817 0q92 0 92-92l0-816q0-92-92-92l-817 0q-92 0-92 92l0 816q0 92 92 92" horiz-adv-x="1001" />

<glyph glyph-name="civilians" unicode="&#xe842;" d="M92 850l817 0q92 0 92-92l0-816q0-92-92-92l-817 0q-92 0-92 92l0 816q0 92 92 92m410-546l-54 182q-10 28-22 41-13 16-35 16l-147 0q-40 0-57-57l-54-182q0-12 8-20 8-8 20-8 20 0 29 28l43 125 23 0-75-244 53 0 0-155q0-15 11-25 10-10 24-10 15 0 25 10 10 10 10 25l0 155 26 0 0-155q0-15 10-25 11-10 25-10 14 0 24 10 11 10 11 25l0 155 53 0-75 244 24 0 42-125q10-28 29-28 12 0 20 8 9 8 9 20m-185 401q-30 0-50-21-21-21-21-50 0-29 21-51 20-19 50-19 30 0 50 19 21 22 21 51 0 29-21 50-20 21-50 21m551-401l0 182q0 24-17 40-16 17-40 17l-212 0q-24 0-41-17-16-16-16-40l0-182q0-12 8-20 8-8 21-8 12 0 20 8 8 8 8 20l0 125 23 0 0-399q0-15 11-25 10-10 24-10 14 0 24 10 10 10 10 25l0 249 27 0 0-249q0-15 10-25 10-10 25-10 14 0 24 10 10 10 10 25l0 399 24 0 0-125q0-12 9-20 8-8 19-8 12 0 20 8 9 8 9 20m-163 401q-30 0-51-21-20-21-20-50 0-29 20-51 21-19 51-19 29 0 50 19 21 22 21 51 0 29-21 50-21 21-50 21" horiz-adv-x="1001" />

<glyph glyph-name="close-range" unicode="&#xe843;" d="M92 850l817 0q92 0 92-92l0-816q0-92-92-92l-817 0q-92 0-92 92l0 816q0 92 92 92m668-271l39 38-100 100-39-39 13-12-60-60-26 26-187-187 126-127 20 20q14-24 39-38 25-15 54-15l23 2q8-23 8-50 0-66-47-112-46-47-112-47-34 0-64 14-30 12-53 36l61 0 0 65-253 0 0-65 88 0q17-34 44-61l-61 0 0-85 478 0 0 85-64 0q33 34 51 77 18 44 18 93 0 55-23 104 14 24 14 52 0 29-15 54-14 24-38 38l20 20-27 26 60 60 13-12m-451-243l108-109 27 27 26-27 41 40-163 162-41-40 27-27-25-26" horiz-adv-x="1001" />

<glyph glyph-name="completion" unicode="&#xe844;" d="M500 717q-152 0-260-108-107-107-107-259 0-153 107-260 108-108 260-108 153 0 260 108 108 107 108 260 0 152-108 259-107 108-260 108m-408 133l817 0q92 0 92-92l0-816q0-92-92-92l-817 0q-92 0-92 92l0 816q0 92 92 92m408-500l-302 0q0 125 88 213 89 89 214 89l0-302" horiz-adv-x="1001" />

<glyph glyph-name="completion-list" unicode="&#xe845;" d="M803 717l-605 0q-27 0-46-19-19-20-19-46l0-604q0-27 19-46 19-20 46-20l605 0q26 0 46 20 19 19 19 46l0 604q0 26-19 46-19 19-46 19m-711 133l817 0q92 0 92-92l0-816q0-92-92-92l-817 0q-92 0-92 92l0 816q0 92 92 92m116-209l151 0 0-151-151 0 0 151m140-45l-36 24-32-50-26 31-33-28 45-53 11-8 13 0 10 9 48 75m-36-198l-32-49-26 31-33-28 45-53 11-7 13 0 10 9 48 74-36 23m47 27l0-151-151 0 0 151 151 0m0-368l-151 0 0 152 151 0 0-152" horiz-adv-x="1001" />

<glyph glyph-name="complication" unicode="&#xe846;" d="M133 717l0-332 75 0 0 256 584 0 0-256 76 0 0 332-735 0m659-659l-257 0 0 52 204 0 0 479-204 0 0-77 128 0 0-326-326 0 0 326 128 0 0 77-204 0 0-479 204 0 0-52-257 0 0 257-75 0 0-333 735 0 0 333-76 0 0-257m-700 792l817 0q92 0 92-92l0-816q0-92-92-92l-817 0q-92 0-92 92l0 816q0 92 92 92m443-611l76 0 0 221-221 0 0-221 75 0 0 146 70 0 0-146" horiz-adv-x="1001" />

<glyph glyph-name="complication-optional" unicode="&#xe847;" d="M208 385l53 0 0 204 204 0 0-77-128 0 0-326 326 0 0 326-128 0 0 77 204 0 0-204 53 0 0 256-584 0 0-256m-116 465l817 0q92 0 92-92l0-816q0-92-92-92l-817 0q-92 0-92 92l0 816q0 92 92 92m700-535l-53 0 0-205-204 0 0-52 257 0 0 257m-257-76l0 146-70 0 0-146-75 0 0 221 221 0 0-221-76 0m-274-129l0 205-53 0 0-257 257 0 0 52-204 0" horiz-adv-x="1001" />

<glyph glyph-name="concealed-weapon" unicode="&#xe848;" d="M469 363q-10 0-21 18l-16 40 72 0 19-58-54 0m397-144l-73 233 62 20-22 81-13 17-19 6-128 0 0-22-507 0q-13 0-22-9-10-10-10-23l0-68q0-13 10-23 9-10 22-10l211 0q28-110 92-110l112 0 52-163q3-12 12-18 8-7 19-7l10 2 173 54q10 2 15 11 7 9 7 19l-3 10m-774 631l817 0q92 0 92-92l0-816q0-92-92-92l-817 0q-92 0-92 92l0 816q0 92 92 92" horiz-adv-x="1001" />

<glyph glyph-name="contract" unicode="&#xe849;" d="M505 504q57 0 97-40 41-40 41-98 0-37-19-69-18-32-49-50l0-46-140 0 0 46q-31 18-50 50-19 32-19 69 0 58 41 98 41 40 98 40m55-175q15 0 25 12 11 11 11 25 0 15-11 26-10 11-25 11-16 0-25-11-12-11-12-26 0-14 12-25 9-12 25-12m301-286l-330 649q-12 25-31 25-17 0-30-25l-330-649q-13-25-2-43 11-18 40-18l645 0q29 0 40 18 11 17-2 43m-769 807l817 0q92 0 92-92l0-816q0-92-92-92l-817 0q-92 0-92 92l0 816q0 92 92 92m358-521q15 0 25 12 11 11 11 25 0 15-11 26-10 11-25 11-15 0-26-11-11-11-11-26 0-14 11-25 11-12 26-12m202-257l-18-42-129 56-130-56-18 42 91 39-91 40 18 41 130-56 129 56 18-41-90-40 90-39" horiz-adv-x="1001" />

<glyph glyph-name="controller" unicode="&#xe84a;" d="M587 312l137 0-64-63 54-54 154 155-154 153-54-53 64-63-137 0 0-75m-48 123l0 137 62-63 53 53-154 155-154-155 54-53 62 63 0-137 77 0m-447 415l817 0q92 0 92-92l0-816q0-92-92-92l-817 0q-92 0-92 92l0 816q0 92 92 92m323-538l0 75-138 0 64 63-54 53-154-153 154-155 54 54-64 63 138 0m47-49l0-136-62 63-54-54 154-154 154 154-53 54-62-63 0 136-77 0" horiz-adv-x="1001" />

<glyph glyph-name="corrupt" unicode="&#xe84b;" d="M775 683l-266 0 116-117-148-146 148-149-148-147 108-107 190 0q24 0 41 17 17 17 17 41l0 549q0 25-17 42-17 17-41 17m-683 167l817 0q92 0 92-92l0-816q0-92-92-92l-817 0q-92 0-92 92l0 816q0 92 92 92m282-726l148 147-148 149 148 146-116 117-180 0q-24 0-42-17-17-18-17-42l0-549q0-24 17-41 17-17 42-17l256 0-108 107" horiz-adv-x="1001" />

<glyph glyph-name="credits" unicode="&#xe84c;" d="M92 850l817 0q92 0 92-92l0-816q0-92-92-92l-817 0q-92 0-92 92l0 816q0 92 92 92m428-171q0-16 11-26 11-12 26-12l273 0q16 0 27 12 11 10 11 26 0 16-11 27-11 11-27 11l-273 0q-15 0-26-11-11-11-11-27m37-202l267 0q16 0 27 11 11 11 11 26 0 15-11 27-11 11-27 11l-267 0q-15 0-26-11-11-12-11-27 0-15 11-26 11-11 26-11m0-165l273 0q16 0 27 11 11 11 11 27 0 15-11 27-11 10-27 10l-273 0q-15 0-26-10-11-12-11-27 0-16 11-27 11-11 26-11m-113 329q16 0 26 12 11 10 11 26 0 16-11 27-10 11-26 11l-273 0q-16 0-27-11-11-11-11-27 0-16 11-26 11-12 27-12l273 0m37-127q0 15-11 27-10 11-26 11l-268 0q-15 0-27-11-10-12-10-27 0-15 10-26 12-11 27-11l268 0q16 0 26 11 11 11 11 26m0-164q0 15-11 27-10 10-26 10l-273 0q-16 0-27-10-11-12-11-27 0-16 11-27 11-11 27-11l273 0q16 0 26 11 11 11 11 27m0-330q0 16-11 28-10 9-26 9l-273 0q-16 0-27-9-11-12-11-28 0-16 11-27 11-11 27-11l273 0q16 0 26 11 11 11 11 27m0 165q0 15-11 27-10 11-26 11l-225 0q-16 0-27-11-11-12-11-27 0-16 11-27 11-11 27-11l225 0q16 0 26 11 11 11 11 27m76-203l273 0q16 0 27 11 11 11 11 27 0 16-11 28-11 9-27 9l-273 0q-15 0-26-9-11-12-11-28 0-16 11-27 11-11 26-11m0 165l225 0q15 0 27 11 11 11 11 27 0 15-11 27-12 11-27 11l-225 0q-15 0-26-11-11-12-11-27 0-16 11-27 11-11 26-11" horiz-adv-x="1001" />

<glyph glyph-name="crowd-control" unicode="&#xe84d;" d="M868 708l-3 6-7 3-115 0-7-3-3-6 0-32q-7-9-25-16l-31-5q-24 0-42 17-17 17-19 42l-3 3-161 0q-118 0-230-116-57-58-89-116l24-25q27 25 70 48 85 48 164 48 25 0 44-18 17-18 17-44l0-29 164 0 0 29q0 26 18 44 18 18 43 18l31-6q18-6 25-15l0-32 3-6 7-3 115 0 7 3 3 6 0 205m-776 142l817 0q92 0 92-92l0-816q0-92-92-92l-817 0q-92 0-92 92l0 816q0 92 92 92m173-638l0-164-40 0 0 104-35 0 0 27q17 0 28 9 12 8 16 24l31 0m330-83q0-20-5-35l-15-27q-11-11-23-17-13-6-30-6l-28 6-23 17-15 27q-5 17-5 35 0 18 5 35 6 16 15 27 10 12 23 17 12 6 29 6 17 0 30-6 12-5 22-17l16-27 4-35m-160 0q0-20-6-35-4-15-14-27-11-11-23-17-13-6-29-6-15 0-30 6l-22 17-15 27q-5 17-5 35 0 18 5 35 5 15 15 27 10 12 22 17 13 6 30 6 18 0 29-6 13-5 24-17 9-11 14-27 5-16 5-35m-49 39q-3 7-9 11-6 4-14 4-7 0-15-4l-9-11-5-17-2-22 2-22 5-17 9-11 15-4q8 0 14 4l9 11 6 17 1 22-1 22-6 17m160 0l-9 11q-6 4-14 4-7 0-14-4l-10-11-5-17-2-22 2-22 5-17 10-11q6-4 14-4 8 0 14 4l10 11 5 17 2 22-2 22-6 17m322 39q0 29-21 50-21 20-50 20l-182 0 0 158-163 0 0-158-249 0q-29 0-49-20-21-21-21-50l0-154q0-29 21-50 20-21 49-21l594 0q29 0 50 21 21 21 21 50l0 154m-104-88q-8 0-11-8l-3-19 3-20q3-7 11-7 7 0 10 7l4 20-4 19q-3 8-10 8m-128 3l-14 10-9 15q-3 9-3 19 0 12 3 20l9 15 14 10 17 3 18-3 14-10q6-6 9-15l3-20-3-19-9-15-14-10-18-3-17 3m39-74l-22 0 88 163 23 0-89-163m132 44l-3-20-9-15-14-10-17-3-17 3q-10 3-15 10-6 7-8 15-4 8-4 20 0 10 4 19 2 9 8 15 5 6 15 10l17 2 17-2 14-9q7-8 9-16l3-19m-143 55l4 19-4 20q-4 8-11 8-8 0-10-8-4-7-4-20 0-12 4-19 2-8 10-8 7 0 11 8" horiz-adv-x="1001" />

<glyph glyph-name="cutscene" unicode="&#xe84e;" d="M92 850l817 0q92 0 92-92l0-816q0-92-92-92l-817 0q-92 0-92 92l0 816q0 92 92 92m583-562l-90 0 59 101 90 0-59-101m-28 364l75-89-91-14-73 90 89 13m128 20l15-99-74 90 59 9m-469-241l1 6-2 19 550 84-20 123q-3 26-25 42-21 15-48 11l-591-90q-27-3-43-25-15-21-11-47l19-123 0-385q0-26 19-45 18-19 45-19l599 0q27 0 45 19 19 19 19 45l0 385-557 0m-85-37q-18 0-31 12-12 14-12 31 0 19 12 31 13 13 31 13 19 0 31-13 13-12 13-31 0-17-13-31-12-12-31-12m268 234l73-90-89-13-73 90 89 13m-158-24l73-90-90-13-72 89 89 14m24-316l-91 0 59 101 90 0-58-101m449 0l-59 0 59 101 0-101m-289 0l-90 0 58 101 91 0-59-101" horiz-adv-x="1001" />

<glyph glyph-name="damage" unicode="&#xe84f;" d="M92 850l817 0q92 0 92-92l0-816q0-92-92-92l-817 0q-92 0-92 92l0 816q0 92 92 92m392-519q10-10 75 32 33 20 64 43l33 10 155 154-89 88-155-154-9-33-44-64q-41-65-30-76m286 377l-34-33 91-91 33 34-90 90m0-263l-163-169 16-137-122 61-122-61 16 137-92 95 132 30 115 202-49 88-121-214-246-53 170-178-30-255 227 113 227-113-31 255 171 178-98 21" horiz-adv-x="1001" />

<glyph glyph-name="difficulty-1" unicode="&#xe850;" d="M500 717q-22 0-49-118-14-60-22-119l-27-47 0-342 198 0 0 342-27 47q-9 59-23 119-27 118-50 118m-408 133l817 0q92 0 92-92l0-816q0-92-92-92l-817 0q-92 0-92 92l0 816q0 92 92 92m509-793l-201 0 0-75 201 0 0 75" horiz-adv-x="1001" />

<glyph glyph-name="difficulty-2" unicode="&#xe851;" d="M636 717q-22 0-50-118-13-60-22-119l-27-47 0-342 197 0 0 342-26 47-22 119q-26 118-50 118m-544 133l817 0q92 0 92-92l0-816q0-92-92-92l-817 0q-92 0-92 92l0 816q0 92 92 92m275-133q-23 0-50-118-13-60-22-119l-26-47 0-342 197 0 0 342-27 47q-8 59-22 119-27 118-50 118m100-660l-200 0 0-75 200 0 0 75m267-75l0 75-199 0 0-75 199 0" horiz-adv-x="1001" />

<glyph glyph-name="difficulty-3" unicode="&#xe852;" d="M92 850l817 0q92 0 92-92l0-816q0-92-92-92l-817 0q-92 0-92 92l0 816q0 92 92 92m408-133q-22 0-49-118-14-60-22-119l-27-47 0-342 198 0 0 342-27 47q-9 59-23 119-27 118-50 118m270 0q-23 0-50-118-14-60-23-119l-26-47 0-342 197 0 0 342-27 47-21 119q-27 118-50 118m-538 0q-23 0-50-118-13-60-22-119l-27-47 0-342 198 0 0 342-27 47q-8 59-22 119-27 118-50 118m102-660l-201 0 0-75 201 0 0 75m267 0l-201 0 0-75 201 0 0 75m267-75l0 75-200 0 0-75 200 0" horiz-adv-x="1001" />

<glyph glyph-name="difficulty-casual" unicode="&#xe853;" d="M92 850l817 0q92 0 92-92l0-816q0-92-92-92l-817 0q-92 0-92 92l0 816q0 92 92 92m493-403q-23 0-39 17-16 16-16 39 0 24 16 40 16 17 39 17 24 0 41-17 16-16 16-40 0-23-16-39-17-17-41-17m-85 270q-88 0-151-62-63-64-63-152 0-58 29-107 29-49 77-77l0-72 216 0 0 72q48 28 77 77 29 49 29 107 0 88-62 152-63 62-152 62m-85-270q-23 0-40 17-16 16-16 39 0 24 16 40 17 17 40 17 23 0 39-17 17-16 17-40 0-22-17-39-16-17-39-17m313-399l-139 61 139 61-28 65-200-88-199 88-28-65 139-61-139-61 28-66 199 88 200-88 28 66" horiz-adv-x="1001" />

<glyph glyph-name="difficulty-level" unicode="&#xe854;" d="M92 850l817 0q92 0 92-92l0-816q0-92-92-92l-817 0q-92 0-92 92l0 816q0 92 92 92m755-160l-561 0-144-143 449 0-441-441 114-114 440 445 0-454 143 144 0 563" horiz-adv-x="1001" />

<glyph glyph-name="difficulty-master" unicode="&#xe855;" d="M92 850l817 0q92 0 92-92l0-816q0-92-92-92l-817 0q-92 0-92 92l0 816q0 92 92 92m553-219q15 17 36 17 21 0 34-14 14-14 14-33 0-25-21-39 36-58 36-126 0-22-5-49l104 0 0 59q41 24 64 65 25 41 25 90 0 73-52 126-52 53-126 53-57 0-104-33-44-32-64-84 34-12 59-32m-219 5q-21-8-38-19l-10-7-2-1-1-1-2-1-2-2-21-18q-62-62-62-150 0-58 29-108 29-47 76-75l0-72 215 0 0 72q48 28 76 75 30 50 30 108 0 88-63 150l-18 17-5 3q-21 17-52 29l-12 5-63 9-64-9q-5-3-11-5m159-255q-23 0-39 17-16 16-16 39 0 23 16 40 16 16 39 16 24 0 40-16 16-17 16-40 0-23-16-39-16-17-40-17m240 267q20 0 34-14 13-14 13-33 0-20-13-34-14-13-34-13-20 0-34 13-13 14-13 34 0 19 13 33 14 14 34 14m-667-202l0-59 105 0q-6 27-6 49 0 68 36 126-20 14-20 39 0 19 13 33 14 14 34 14 21 0 36-17 26 20 60 32-20 52-64 84-47 33-104 33-74 0-126-53-53-53-53-126 0-49 25-90 24-41 64-65m19 202q20 0 33-14 14-14 14-33 0-20-14-34-13-13-33-13-20 0-33 13-14 14-14 34 0 19 14 33 13 14 33 14m239-267q-24 0-40 17-16 16-16 39 0 23 16 40 16 16 40 16 23 0 40-16 15-17 15-40 0-23-15-39-17-17-40-17m-52-193l0 47-41 36-2 0 1 0q-18 21-35 49l-39-16-166 73-24-55 116-51-116-51 24-54 166 73 116-51m364-204l-139 60 139 61-29 65-198-87-199 87-27-65 138-61-138-60 27-65 199 87 198-87 29 65m215 338l-23 55-166-73-40 16-35-49 0 0-41-36 0-47 116 51 166-73 23 54-115 51 115 51" horiz-adv-x="1001" />

<glyph glyph-name="difficulty-professional" unicode="&#xe856;" d="M92 850l817 0q92 0 92-92l0-816q0-92-92-92l-817 0q-92 0-92 92l0 816q0 92 92 92m553-417q-21 0-35 15-15 14-15 35 0 20 15 35 13 14 35 14 19 0 34-14 14-15 14-35 0-21-14-35-15-15-34-15m73 237q-77 0-131-54-55-56-55-133 0-50 26-94 25-43 67-67l0-62 187 0 0 62q43 24 68 67 26 44 26 94 0 77-55 133-55 54-133 54m75-237q-20 0-35 15-14 14-14 35 0 20 14 35 15 14 35 14 21 0 35-14 14-15 14-35 0-21-14-35-14-15-35-15m-510 237q-77 0-132-54-55-56-55-133 0-50 26-94 24-43 67-67l0-62 188 0 0 62q42 24 67 67 25 44 25 94 0 77-54 133-55 54-132 54m-75-237q-20 0-35 15-14 14-14 35 0 20 14 35 15 14 35 14 20 0 34-14 15-15 15-35 0-21-15-35-14-15-34-15m149 0q-19 0-34 15-15 14-15 35 0 20 15 35 14 14 34 14 21 0 35-14 15-15 15-35 0-21-15-35-14-15-35-15m560-348l-122 54 122 53-24 57-175-77-174 77-24-57 122-53-122-54 24-55 174 75 175-75 24 55m-436 0l-122 54 122 53-24 57-174-77-174 77-25-57 122-53-122-54 25-55 174 75 174-75 24 55" horiz-adv-x="1001" />

<glyph glyph-name="disguise" unicode="&#xe857;" d="M835 717l-71 0-54-93q-80 46-160 93l-102 0-120-56-80 56-83 0q-13 0-22-9-10-10-10-23l0-670q0-14 10-23 9-10 22-10l670 0q14 0 23 10 10 9 10 23l0 670q0 13-10 23-9 9-23 9m-264-669l-28 473-86 0-28-473-138 0 0 524 119 54 47-68 87 0 46 66 120-56 0-520-139 0m-479 802l817 0q92 0 92-92l0-816q0-92-92-92l-817 0q-92 0-92 92l0 816q0 92 92 92" horiz-adv-x="1001" />

<glyph glyph-name="distraction" unicode="&#xe858;" d="M92 850l817 0q92 0 92-92l0-816q0-92-92-92l-817 0q-92 0-92 92l0 816q0 92 92 92m641-737q66 62 100 143 35 81 35 169 0 77-27 150-27 73-77 130-9 11-23 12-13 1-23-7-10-9-12-24 0-13 8-23 43-49 66-111 22-61 22-127 0-75-28-143-31-68-85-121-10-8-11-23 0-13 9-23 10-10 24-10 13 0 22 8m-127 66q53 46 81 112 29 64 29 134 0 114-67 202-8 11-22 13-14 2-25-6-10-9-12-22-2-13 6-25 54-71 54-162 0-56-23-108-23-51-65-90-10-8-10-22-2-14 8-24 10-11 24-11 14 0 22 9m-342-197q54 0 92 39 38 38 38 92 0 48 9 66 7 14 36 41 50 45 78 78 45 54 45 133 0 89-62 152-63 63-152 63-89 0-152-63-63-63-63-152 0-14 10-23 10-10 23-10 14 0 24 10 9 10 9 23 0 62 43 106 44 44 106 44 62 0 105-44 44-44 44-106 0-55-30-89-29-36-71-73-40-35-51-59-16-32-16-97 0-27-19-46-19-19-46-19-27 0-46 19-19 19-19 46 0 14-9 23-10 10-24 10-13 0-23-10-10-9-10-23 0-54 39-92 37-39 92-39m63 241q24 25 24 61 0 27-16 49-16 22-41 31l0 61q0 21 16 37 15 16 37 16 22 0 36-16 17-16 17-37 0-11 8-19 7-8 18-8 12 0 20 8 7 8 7 19 0 45-31 76-31 31-75 31-44 0-76-31-31-31-31-76l0-111 27 0q12 0 21-9 9-9 9-21 0-13-9-22-8-8-8-19 0-11 8-20 8-8 19-8 12 0 20 8" horiz-adv-x="1001" />

<glyph glyph-name="download" unicode="&#xe859;" d="M610 397l0 320-218 0 0-320-119 0 227-232 229 232-119 0m-518 453l817 0q92 0 92-92l0-816q0-92-92-92l-817 0q-92 0-92 92l0 816q0 92 92 92m624-868q23 0 38 15 16 16 16 39 0 23-16 39-15 15-38 15l-432 0q-21 0-37-15-16-16-16-39 0-23 16-39 16-15 37-15l432 0" horiz-adv-x="1001" />

<glyph glyph-name="edit" unicode="&#xe85a;" d="M92 850l817 0q92 0 92-92l0-816q0-92-92-92l-817 0q-92 0-92 92l0 816q0 92 92 92m752-207l-50 51q-23 23-57 23-33 0-57-23l-23-24 163-164 24 23q24 24 24 58 0 33-24 56m-35-164l-179 179-37-36 179-179 37 36m-55-57l-44 44-331-332 44-42 331 330m-136 137l-44 44-332-331 44-44 332 331m-258-405l331 331-55 54-331-331 55-54m-91-126l135 47-179 178-46-135 90-90m-100 58l-36-104 105 35-69 69" horiz-adv-x="1001" />

<glyph glyph-name="elevation" unicode="&#xe85b;" d="M92 850l817 0q92 0 92-92l0-816q0-92-92-92l-817 0q-92 0-92 92l0 816q0 92 92 92m422-133l-349 0q-13 0-23-9-9-10-9-23l0-670q0-14 9-23 10-10 23-10l349 0q14 0 23 10 10 9 10 23l0 670q0 13-10 23-9 9-23 9m69-201l115 105 0-191 56 0 0 191 114-105 0 71-142 130-143-131 0-70m-337 4l189 0q19 0 35-14 15-14 15-36l0-160q0-11-8-18-7-8-18-8-10 0-17 8-7 7-7 18l0 110-22 0 0-355q0-12-9-21-9-9-21-9-14 0-22 9-9 9-9 21l0 222-23 0 0-222q0-12-9-21-9-9-22-9-12 0-21 9-10 9-10 21l0 355-21 0 0-110q0-11-8-18-6-8-17-8-11 0-18 8-7 7-7 18l0 160q0 22 14 36 15 14 36 14m157 82q0-26-18-45-19-18-45-18-27 0-44 18-19 19-19 45 0 26 19 45 17 18 44 18 26 0 45-18 18-19 18-45m465-488l0 70-114-106 0 191-56 0 0-191-115 106 0-71 143-131 142 132" horiz-adv-x="1001" />

<glyph glyph-name="elusive" unicode="&#xe85c;" d="M92 850l817 0q92 0 92-92l0-816q0-92-92-92l-817 0q-92 0-92 92l0 816q0 92 92 92m776-468l-40 0q-11 117-95 201-83 83-200 95l0 39-65 0 0-39q-117-11-201-95-84-84-94-201l-40 0 0-65 40 0q11-117 94-200 84-84 201-95l0-40 65 0 0 40q117 12 200 95 83 83 95 200l40 0 0 65m-235-3l-82 0q-7 14-21 21l0 155q0 13-9 21-8 9-21 9-11 0-20-9-9-8-9-21l0-155q-13-7-21-20-8-14-8-30 0-24 18-41 17-17 40-17 16 0 31 8l20 21 82 0q12 0 20 8 9 9 9 21 0 12-9 21-8 8-20 8m-100-239l-65 0 0-55q-74 8-133 55l1 0-24 21-21 24-1 0q-46 59-55 132l55 0 0 65-54 0 4 26 7 25q7 22 18 42 17 34 47 63 38 39 87 58 33 14 70 18l31 2 31-2q37-4 70-18 49-19 88-58 38-38 58-87 13-32 17-69l-53 0 0-65 53 0-1-11q-7-41-25-77l-29-44-20-24-25-21-2-2q-28-21-61-35-32-13-68-18l0 55" horiz-adv-x="1001" />

<glyph glyph-name="emote" unicode="&#xe85d;" d="M406 770q-35 0-59-25-24-24-24-58 0-34 24-59 24-24 59-24 34 0 58 24 25 25 25 59 0 34-25 58-24 25-58 25m-314 80l817 0q92 0 92-92l0-816q0-92-92-92l-817 0q-92 0-92 92l0 816q0 92 92 92m655-918q20 0 35 15 13 16 12 35-1 19-16 33l-130 114-61 360 34-8 40-145q5-15 17-24 13-10 28-10l14 2q17 4 28 21 10 18 5 37l-48 171q-6 25-33 33l-121 35-12 2-23-6-212-114 0 116q0 20-14 33-14 14-34 14-19 0-33-14-14-13-14-33l0-198q0-28 23-41 12-6 24-6 13 0 24 6l96 55 27-105-119-311q-7-18 0-36 8-18 26-24l17-4q15 0 27 8 13 9 18 23l103 266 58 9 24-143q3-18 16-29l142-126q13-11 32-11" horiz-adv-x="1001" />

<glyph glyph-name="escalation" unicode="&#xe85e;" d="M92 850l817 0q92 0 92-92l0-816q0-92-92-92l-817 0q-92 0-92 92l0 816q0 92 92 92m408-260q57 0 98-40 41-40 41-98 0-37-19-69-19-33-50-50l0-47-139 0 0 47q-31 17-50 50-19 32-19 69 0 58 40 98 41 40 98 40m56-174q14 0 25 10 11 11 11 26 0 16-11 25-11 11-25 11-16 0-26-11-11-9-11-25 0-15 11-26 10-10 26-10m-56 301q-152 0-260-108-107-107-107-259 0-152 107-260 108-108 260-108 152 0 260 108 108 108 108 260 0 152-108 259-108 108-260 108m-55-301q15 0 25 10 11 11 11 26 0 16-11 25-10 11-25 11-15 0-26-11-10-9-10-25 0-15 10-26 11-10 26-10m203-259l-19-41-129 55-129-55-18 41 91 40-91 39 18 42 129-56 129 56 19-42-91-39 91-40" horiz-adv-x="1001" />

<glyph glyph-name="exit" unicode="&#xe85f;" d="M161 690l0-681q0-12 8-19 8-8 19-8l626 0q11 0 19 8 7 7 7 19l0 200-63 0 0-163-552 0 0 607 552 0 0-137 63 0 0 174q0 11-7 19-8 8-19 8l-626 0q-11 0-19-8-8-8-8-19m-69 160l817 0q92 0 92-92l0-816q0-92-92-92l-817 0q-92 0-92 92l0 816q0 92 92 92m369-737l115 0 215 235-214 235-115 0 171-189-343 0 0-92 343 0-172-189" horiz-adv-x="1001" />

<glyph glyph-name="explosive" unicode="&#xe860;" d="M557 717l-66-215 164 215-98 0m-66-485l377 220 0 76-377-296m281 485l-328-432 424 334 0 98-96 0m-680 133l817 0q92 0 92-92l0-816q0-92-92-92l-817 0q-92 0-92 92l0 816q0 92 92 92m165-417l45 110-45 33-54-74 54-69m82-66l117 350-101 0-16-350m34-5l26-39 79 77-34 74-71-112m86-206l-33-45-34 45-80-20 0 73 31 76-61 0 0 82q-55-19-90-65-35-49-35-109 0-77 55-132 54-54 131-54 63 0 113 39 48 37 65 96l-62 14m135-23l61-63 51 0 0 83-112-20m-50 55l324 97 0 132-324-229" horiz-adv-x="1001" />

<glyph glyph-name="extended-mag" unicode="&#xe861;" d="M92 850l817 0q92 0 92-92l0-816q0-92-92-92l-817 0q-92 0-92 92l0 816q0 92 92 92m558-382l12 0 21 13q50 16 50 31 0 11-25 23-12 5-25 10l-21 12-12 0 0 29 12 0 21 13 25 9q25 12 25 23 0 10-25 22l-46 22-12 0 0 20q0 9-7 16-6 6-16 6l-305 0q-9 0-15-6l-6-16 0-615-33 0 0-65q0-14 9-23 9-10 23-10l350 0q14 0 23 10 10 9 10 23l0 65-33 0 0 37 12 0 21 12q13 4 25 9 25 13 25 23 0 10-25 22l-46 23-12 0 0 28 12 0 21 12 25 10q25 12 25 22 0 10-25 23l-25 9-21 13-12 0 0 28 12 0 21 12 25 10q25 12 25 23 0 10-25 22-12 5-25 10l-21 12-12 0 0 28m-44 206l0-84-262 0 0 84 262 0m-262-218l0 91 262 0 0-91-262 0" horiz-adv-x="1001" />

<glyph glyph-name="extended-mag-1" unicode="&#xe862;" d="M92 850l817 0q92 0 92-92l0-816q0-92-92-92l-817 0q-92 0-92 92l0 816q0 92 92 92m558-382l12 0 21 13q50 16 50 31 0 11-25 23-12 5-25 10l-21 12-12 0 0 29 12 0 21 13 25 9q25 12 25 23 0 10-25 22l-46 22-12 0 0 20q0 9-7 16-6 6-16 6l-305 0q-9 0-15-6l-6-16 0-615-33 0 0-65q0-14 9-23 9-10 23-10l350 0q14 0 23 10 10 9 10 23l0 65-33 0 0 37 12 0 21 12q13 4 25 9 25 13 25 23 0 10-25 22l-46 23-12 0 0 28 12 0 21 12 25 10q25 12 25 22 0 10-25 23l-25 9-21 13-12 0 0 28 12 0 21 12 25 10q25 12 25 23 0 10-25 22-12 5-25 10l-21 12-12 0 0 28m-44 206l0-84-262 0 0 84 262 0m-262-218l0 91 262 0 0-91-262 0m-198-233l0-56 44 0 0 56 52 0 0 41-52 0 0 56-44 0 0-56-52 0 0-41 52 0m305 60l-58 0 0 44q27 1 47 14 20 13 24 40l53 0 0-270-66 0 0 172" horiz-adv-x="1001" />

<glyph glyph-name="extended-mag-2" unicode="&#xe863;" d="M92 850l817 0q92 0 92-92l0-816q0-92-92-92l-817 0q-92 0-92 92l0 816q0 92 92 92m558-382l12 0 21 13q50 16 50 31 0 11-25 23-12 5-25 10l-21 12-12 0 0 29 12 0 21 13 25 9q25 12 25 23 0 10-25 22l-46 22-12 0 0 20q0 9-7 16-6 6-16 6l-305 0q-9 0-15-6l-6-16 0-615-33 0 0-65q0-14 9-23 9-10 23-10l350 0q14 0 23 10 10 9 10 23l0 65-33 0 0 37 12 0 21 12q13 4 25 9 25 13 25 23 0 10-25 22l-46 23-12 0 0 28 12 0 21 12 25 10q25 12 25 22 0 10-25 23l-25 9-21 13-12 0 0 28 12 0 21 12 25 10q25 12 25 23 0 10-25 22-12 5-25 10l-21 12-12 0 0 28m-44 206l0-84-262 0 0 84 262 0m-238-558l5 30 10 25 14 20 19 18 39 31 37 28 13 16q5 8 5 18 0 15-9 25-9 10-26 10-19 0-29-12-6-7-9-17l-2-23-62 0 4 39q4 15 14 29 11 16 32 27 21 9 54 9l43-6 30-19q14-11 20-27 6-16 6-33l-3-25-10-21-15-17-17-14-17-14-20-14-18-14q-9-6-16-14l117 0 0-55-209 0m-24 340l0 91 262 0 0-91-262 0m-198-233l0-56 44 0 0 56 52 0 0 41-52 0 0 56-44 0 0-56-52 0 0-41 52 0" horiz-adv-x="1001" />

<glyph glyph-name="extended-mag-3" unicode="&#xe864;" d="M92 850l817 0q92 0 92-92l0-816q0-92-92-92l-817 0q-92 0-92 92l0 816q0 92 92 92m558-382l12 0 21 13q50 16 50 31 0 11-25 23-12 5-25 10l-21 12-12 0 0 29 12 0 21 13 25 9q25 12 25 23 0 10-25 22l-46 22-12 0 0 20q0 9-7 16-6 6-16 6l-305 0q-9 0-15-6l-6-16 0-615-33 0 0-65q0-14 9-23 9-10 23-10l350 0q14 0 23 10 10 9 10 23l0 65-33 0 0 37 12 0 21 12q13 4 25 9 25 13 25 23 0 10-25 22l-46 23-12 0 0 28 12 0 21 12 25 10q25 12 25 22 0 10-25 23l-25 9-21 13-12 0 0 28 12 0 21 12 25 10q25 12 25 23 0 10-25 22-12 5-25 10l-21 12-12 0 0 28m-44 206l0-84-262 0 0 84 262 0m-123-562l-50 7-35 19q-30 26-30 73l63 0q1-21 12-35 11-14 36-14 21 0 32 11 11 10 11 27 0 17-12 26-12 9-34 9l-16 0 0 46 15 0q18 0 30 8 11 8 11 23 0 14-10 23-9 8-25 8-21 0-32-12-10-12-11-29l-61 0q0 19 7 36 7 17 20 29 13 12 33 19l44 6 41-5q18-5 31-15 13-9 21-24 7-14 7-31 0-21-11-34-12-13-30-20l0-1q22-6 35-22 14-17 14-44 0-21-9-37-9-16-23-27-15-10-34-15l-40-5m-139 344l0 91 262 0 0-91-262 0m-198-233l0-56 44 0 0 56 52 0 0 41-52 0 0 56-44 0 0-56-52 0 0-41 52 0" horiz-adv-x="1001" />

<glyph glyph-name="extended-mag-4" unicode="&#xe865;" d="M92 850l817 0q92 0 92-92l0-816q0-92-92-92l-817 0q-92 0-92 92l0 816q0 92 92 92m558-382l12 0 21 13q50 16 50 31 0 11-25 23-12 5-25 10l-21 12-12 0 0 29 12 0 21 13 25 9q25 12 25 23 0 10-25 22l-46 22-12 0 0 20q0 9-7 16-6 6-16 6l-305 0q-9 0-15-6l-6-16 0-615-33 0 0-65q0-14 9-23 9-10 23-10l350 0q14 0 23 10 10 9 10 23l0 65-33 0 0 37 12 0 21 12q13 4 25 9 25 13 25 23 0 10-25 22l-46 23-12 0 0 28 12 0 21 12 25 10q25 12 25 22 0 10-25 23l-25 9-21 13-12 0 0 28 12 0 21 12 25 10q25 12 25 23 0 10-25 22-12 5-25 10l-21 12-12 0 0 28m-44 206l0-84-262 0 0 84 262 0m-262-218l0 91 262 0 0-91-262 0m139-233l0 92-2 0-73-91 0-1 75 0m-337 0l0-56 44 0 0 56 52 0 0 41-52 0 0 56-44 0 0-56-52 0 0-41 52 0m337-50l-126 0 0 61 124 151 66 0 0-162 38 0 0-50-38 0 0-60-64 0 0 60" horiz-adv-x="1001" />

<glyph glyph-name="eye-tracking" unicode="&#xe866;" d="M861 449q-16 62-72 93-56 32-117 14-39-10-70-37l-44-53-32-39q-18-17-39-24l-47 2q-15 4-47 18-40 19-63 25-40 9-80-1-62-14-95-69-33-55-17-117l2-11q16-62 72-93 56-31 117-14 41 11 71 39 17 16 44 52l30 39q17 17 40 23l47-1q14-3 45-18 40-19 64-25 40-11 81 0 61 15 95 69 34 55 18 118l-3 10m-769 401l817 0q92 0 92-92l0-816q0-92-92-92l-817 0q-92 0-92 92l0 816q0 92 92 92" horiz-adv-x="1001" />

<glyph glyph-name="failed" unicode="&#xe867;" d="M617 350l202 202-117 116-202-202-202 202-116-116 202-202-202-202 116-117 202 202 202-202 117 117-202 202m-525 500l817 0q92 0 92-92l0-816q0-92-92-92l-817 0q-92 0-92 92l0 816q0 92 92 92" horiz-adv-x="1001" />

<glyph glyph-name="fast-reload" unicode="&#xe868;" d="M677 187l0 508q0 9-6 15-7 6-16 6l-310 0q-9 0-15-6-7-6-7-15l0-508-11 0-44-173q0-13 9-23 9-9 24-9l399 0q14 0 24 9 9 10 9 23l-44 173-12 0m-585 663l817 0q92 0 92-92l0-816q0-92-92-92l-817 0q-92 0-92 92l0 816q0 92 92 92m275-727l0 553 266 0 0-553-266 0" horiz-adv-x="1001" />

<glyph glyph-name="fast-reload-2" unicode="&#xe869;" d="M92 850l817 0q92 0 92-92l0-816q0-92-92-92l-817 0q-92 0-92 92l0 816q0 92 92 92m585-663l0 508q0 9-6 15-7 6-16 6l-310 0q-9 0-15-6-7-6-7-15l0-508-11 0-44-173q0-13 9-23 9-9 24-9l399 0q14 0 24 9 9 10 9 23l-44 173-12 0m-487 163l-39-40 30-30 40 39 38-36 28 28-37 37 40 41-31 30-40-40-37 37-29-28 37-38m205-129l209 0 0 54-117 0 16 15 18 14 19 13 18 14 17 15 15 17 10 20 3 25q0 18-7 34-5 16-19 27l-30 19-43 6q-33 0-54-9-21-11-33-27l-13-29-4-40 61 0 3 24 9 16q10 12 29 12 17 0 26-9 9-10 9-26 0-10-5-17l-13-16q-15-14-37-29l-39-30q-10-8-19-18l-15-21-9-24-5-30m-28-98l0 553 266 0 0-553-266 0" horiz-adv-x="1001" />

<glyph glyph-name="fast-reload-3" unicode="&#xe86a;" d="M92 850l817 0q92 0 92-92l0-816q0-92-92-92l-817 0q-92 0-92 92l0 816q0 92 92 92m585-663l0 508q0 9-6 15-7 6-16 6l-310 0q-9 0-15-6-7-6-7-15l0-508-11 0-44-173q0-13 9-23 9-9 24-9l399 0q14 0 24 9 9 10 9 23l-44 173-12 0m-487 163l-39-40 30-30 40 39 38-36 28 28-37 37 40 41-31 30-40-40-37 37-29-28 37-38m315-141l40 5q19 5 34 16 14 10 23 26 8 16 8 37 0 28-12 44-14 16-36 23l0 0 30 20q11 13 11 34 0 17-7 32-7 14-21 24-13 9-31 15l-40 4-45-6q-19-6-33-19-13-12-20-29-7-16-7-37l61 0q1 18 11 30 10 13 32 13 16 0 26-9 9-9 9-22 0-16-11-23-12-8-31-8l-14 0 0-46 16 0q23 0 34-10 12-8 12-26 0-16-11-27-11-10-31-10-25 0-37 13-11 14-13 36l-62 0q0-47 30-74 15-12 35-19l50-7m-138-86l0 553 266 0 0-553-266 0" horiz-adv-x="1001" />

<glyph glyph-name="fast-reload-4" unicode="&#xe86b;" d="M677 187l0 508q0 9-6 15-7 6-16 6l-310 0q-9 0-15-6-7-6-7-15l0-508-11 0-44-173q0-13 9-23 9-9 24-9l399 0q14 0 24 9 9 10 9 23l-44 173-12 0m-165 137l-76 0 0 1 74 91 2 0 0-92m0-50l0-60 63 0 0 60 39 0 0 50-39 0 0 161-65 0-124-150 0-61 126 0m-420 576l817 0q92 0 92-92l0-816q0-92-92-92l-817 0q-92 0-92 92l0 816q0 92 92 92m98-500l-39-40 30-30 40 39 38-36 28 28-37 37 40 41-31 30-40-40-37 37-29-28 37-38m177-227l0 553 266 0 0-553-266 0" horiz-adv-x="1001" />

<glyph glyph-name="favorite-contracts" unicode="&#xe86c;" d="M832 99l-303 596q-12 22-29 22-15 0-28-22l-303-596q-11-24 0-40 10-17 36-17l592 0q26 0 36 17 11 16-1 40m-166 185q0-69-48-117-49-48-118-48-67 0-116 48-48 48-48 117 0 69 48 116 49 50 116 50 69 0 118-50 48-47 48-116m-29 0q0 57-40 96-40 41-97 41-56 0-96-41-39-39-39-96 0-57 39-96 40-40 96-40 57 0 97 40 40 39 40 96m-35 0q0-42-29-72-30-29-73-29-41 0-71 29-29 30-29 72 0 43 29 72 30 30 71 30 43 0 73-30 29-29 29-72m-510 566l817 0q92 0 92-92l0-816q0-92-92-92l-817 0q-92 0-92 92l0 816q0 92 92 92" horiz-adv-x="1001" />

<glyph glyph-name="featured" unicode="&#xe86d;" d="M500 699l-87-266-280 0 227-166-87-267 227 165 228-165-87 267 227 166-281 0-87 266m-408 151l817 0q92 0 92-92l0-816q0-92-92-92l-817 0q-92 0-92 92l0 816q0 92 92 92" horiz-adv-x="1001" />

<glyph glyph-name="fiber-wire" unicode="&#xe86e;" d="M92 850l817 0q92 0 92-92l0-816q0-92-92-92l-817 0q-92 0-92 92l0 816q0 92 92 92m572-341q0-68-48-116-48-48-116-48-67 0-115 48-49 48-49 116 0 68 49 116 48 48 115 48 68 0 116-48 48-48 48-116m171-134l-42 0q-14 0-23-10-10-9-10-23l0-138q-28 2-48 22-23 22-23 54 0 32 23 55l118 117q35 36 35 85 0 48-35 85-23 28-78 52-99 43-252 43l0 0q-152 0-252-43-55-24-78-52-34-37-34-85 0-49 35-85l117-117q23-23 23-55 0-32-23-54-19-20-46-22l0 138q0 14-10 23-10 10-23 10l-44 0q-13 0-22-10-10-9-10-23l0-327q0-14 10-23 9-10 22-10l44 0q13 0 23 10 10 9 10 23l0 145q44 2 77 35 35 36 35 85 0 50-35 85l-118 118q-23 23-23 54 0 32 23 54l2 3q10 12 34 26 49 28 123 42-31-29-49-68-18-41-18-85 0-86 61-147 61-60 146-60 86 0 147 60 60 61 60 147 0 44-18 85-17 39-48 68 74-14 123-42 24-14 33-26l2-3q23-22 23-54 0-31-23-54l-118-118q-35-35-35-85 0-49 35-85 33-33 79-35l0-145q0-14 10-23 9-10 23-10l42 0q13 0 23 10 10 9 10 23l0 327q0 14-10 23-10 10-23 10" horiz-adv-x="1001" />

<glyph glyph-name="fixed" unicode="&#xe86f;" d="M608 285l88 113q-73 23-114 51l37-9 103-5q38 58 67 119-54 1-90 14l30 5q39 8 79 24 20 48 27 89l3 31q-37-30-96-51l-95-26q-4-37-2-60-12 23-20 53l-22-7q-198-81-292-273-48-97-57-187 174 223 359 371 93 75 160 109l-9-6q-117-80-242-205-189-191-359-453l62 13q39 70 86 138 108 2 205 69-66 25-108 54l40-12 112-8 48 49m-516 565l817 0q92 0 92-92l0-816q0-92-92-92l-817 0q-92 0-92 92l0 816q0 92 92 92" horiz-adv-x="1001" />

<glyph glyph-name="frisk" unicode="&#xe870;" d="M92 850l817 0q92 0 92-92l0-816q0-92-92-92l-817 0q-92 0-92 92l0 816q0 92 92 92m408-302q29 0 50 21 20 20 20 49 0 29-20 50-21 20-50 20-29 0-49-20-21-21-21-50 0-29 21-49 20-21 49-21m297-23l-11 3-571 0-12-3q-9-3-15-12-6-9-6-19 0-14 10-24 9-10 24-10l193 0 0-439q0-15 10-25 10-9 24-9 14 0 24 9 10 10 10 25l0 246 46 0 0-246q0-15 11-25 10-9 24-9 14 0 25 9 9 10 9 25l0 439 193 0q14 0 24 10 10 10 10 24 0 10-7 19l-15 12" horiz-adv-x="1001" />

<glyph glyph-name="full-auto" unicode="&#xe871;" d="M92 850l817 0q92 0 92-92l0-816q0-92-92-92l-817 0q-92 0-92 92l0 816q0 92 92 92m439-792l-312 0-7 3-3 8 0 562 3 7 7 3 312 0 9-3 3-7 0-63-70 0 106-150 106 150-67 0 0 84q0 26-19 46-18 19-46 19l-355 0q-27 0-46-19-19-19-19-46l0-604q0-27 19-47 19-19 46-19l355 0q28 0 46 19 19 20 19 47l0 141-75 0 0-120-3-8-9-3m337 252q0 15-75 31l-75 14-29 16-216 0 0-123 216 0 29 17 75 14q75 16 75 31m-463-63l47 0 0 125-47 0 0-125" horiz-adv-x="1001" />

<glyph glyph-name="game" unicode="&#xe872;" d="M566 717l-139 0q-13 0-22-9-10-10-10-23l0-670q0-14 10-23 9-10 22-10l139 0q13 0 23 10 9 9 9 23l0 670q0 13-9 23-10 9-23 9m269-145l-138 0q-13 0-23-10-9-9-9-23l0-524q0-14 9-23 10-10 23-10l138 0q14 0 24 10 9 9 9 23l0 524q0 14-9 23-10 10-24 10m-743 278l817 0q92 0 92-92l0-816q0-92-92-92l-817 0q-92 0-92 92l0 816q0 92 92 92m212-479l-139 0q-13 0-22-9-10-9-10-23l0-324q0-14 10-23 9-10 22-10l139 0q13 0 23 10 9 9 9 23l0 324q0 14-9 23-10 9-23 9" horiz-adv-x="1001" />

<glyph glyph-name="game-hud" unicode="&#xe873;" d="M803 717l-605 0q-27 0-46-19-19-19-19-46l0-604q0-27 19-47 20-19 46-19l605 0q27 0 46 19 19 20 19 47l0 604q0 27-19 46-19 19-46 19m-594-561l92-56 76 123-168 103 0 315 583 0 0-69-68 42-104-171 121-74-190-311-342 0 0 98m359 209q-17 28-48 36-31 8-59-8-28-18-36-49-9-32 8-60 17-28 48-36 32-8 60 9 28 17 36 48 8 32-9 60m-476 485l817 0q92 0 92-92l0-816q0-92-92-92l-817 0q-92 0-92 92l0 816q0 92 92 92m351-429q27 16 56 17l-134 115 37-173q17 27 41 41" horiz-adv-x="1001" />

<glyph glyph-name="gear" unicode="&#xe874;" d="M92 850l817 0q92 0 92-92l0-816q0-92-92-92l-817 0q-92 0-92 92l0 816q0 92 92 92m589-283q-28 5-65 19-37 14-60 29-25 15-23 22l32 3 64-18q38-14 62-29 24-15 21-23-2-8-31-3m83-97q-29 0-52-14l-480-279q-26-16-42-43l-8-24 0-1-2-10 0-2-1-12 0-1 1-11 1-2 1-10 11-27 0 0 7-11 3-2 5-8 13-10 24-14 13-4 14-2 9-1 17 1 23 6 14 6q240 140 480 280 38 23 49 64 11 42-10 79-15 25-39 38-24 14-51 14m-68 15q30 17 68 17 57 0 97-41 23 82-32 107-228 102-392 134-135 26-249 8 150-151 464-251l44 26m-441-39l1 90-56-1q-64-61-67-192-1-83 22-177l8-16q18 34 52 54l102 60-2 38-31 15-28-40q-31-28-51 25-18 52 14 103l36 41" horiz-adv-x="1001" />

<glyph glyph-name="graphics" unicode="&#xe875;" d="M92 850l817 0q92 0 92-92l0-816q0-92-92-92l-817 0q-92 0-92 92l0 816q0 92 92 92m719-143l-621 0q-23 0-40-17-17-17-17-40l0-464q0-24 17-41 16-16 40-16l621 0q24 0 41 16 16 16 16 41l0 464q0 24-16 40-17 17-41 17m-103-187l-49 0q-9 0-15-8-7-6-7-14l0-226q0-9 7-15 6-7 15-7l49 0q9 0 16 7 5 6 5 15l0 226q0 9-5 14-7 8-16 8m-123 0l-49 0q-9 0-15-8-7-6-7-14l0-226q0-9 7-15 6-7 15-7l49 0q10 0 15 7 7 6 7 15l0 226q0 8-7 14-5 8-15 8m-123 65l-50 0q-8 0-14-6-7-7-7-15l0-292q0-9 7-15 6-7 14-7l50 0q9 0 15 7 7 6 7 15l0 292q0 8-7 15-6 6-15 6m-119-157l-50 0q-9 0-15-7-7-5-7-15l0-134q0-9 7-15 6-7 15-7l50 0q9 0 15 7 7 6 7 15l0 134q0 10-7 15-6 7-15 7m284-435q10 0 18 7 8 8 8 19l0 46q0 10-8 18-8 8-18 8l-252 0q-10 0-19-8-8-8-8-18l0-46q0-11 8-19 9-7 19-7l252 0m166 638l0-425-584 0 0 425 584 0" horiz-adv-x="1001" />

<glyph glyph-name="hail-storm" unicode="&#xe876;" d="M92 850l817 0q92 0 92-92l0-816q0-92-92-92l-817 0q-92 0-92 92l0 816q0 92 92 92m522-167l-33 34-90-89 33-34 90 89m178-202l-10 33-154 154-88-89 154-154 33-9 63-43q65-41 75-31 11 10-30 76l-43 63m-537 202l-32 34-90-89 33-34 89 89m179-202l-10 33-154 154-88-89 154-154 33-9 63-43q65-41 75-31 10 10-30 76l-43 63m0-358l-10 33-154 154-88-89 154-154 33-9 63-43q65-41 75-31 10 10-30 75l-43 64m-179 202l-32 33-90-89 33-33 89 89m537-202l-10 33-154 154-88-89 154-154 33-9 63-43q65-41 75-31 11 10-30 75l-43 64m-178 202l-33 33-90-89 33-33 90 89" horiz-adv-x="1001" />

<glyph glyph-name="hidden" unicode="&#xe877;" d="M697 601q-40 54-89 84-51 32-108 32-56 0-108-32-48-30-88-84l393 0m-472-180l89-89 93 91 91-91 93 91 92-91 92 91q-13 57-40 112l-470 0q-27-55-40-114m-133 429l817 0q92 0 92-92l0-816q0-92-92-92l-817 0q-92 0-92 92l0 816q0 92 92 92m205-767q41-47 91-73 55-28 112-28 58 0 112 28 51 26 92 73l-407 0m478 248l-92-91-92 91-93-91-91 91-93-91-91 91-10-9 0-20q0-79 40-154l488 0 0-12q47 80 47 166l-1 17-12 12" horiz-adv-x="1001" />

<glyph glyph-name="high-pressure" unicode="&#xe878;" d="M308 403l-196-40-24-10 0-7 24-9 196-41 119 0 0-4 15 0 0 4 9 0 0-4 20 0 43-21 332 0 0 156-332 0-43-19-20 0 0-5-9 0 0 5-15 0 0-5-119 0m600 24l-13 0 0-8-16 0-9 8-2 0 0-156 2 0 9 9 16 0 0-9 13 0 4 8 0 141-4 7m-816 423l817 0q92 0 92-92l0-816q0-92-92-92l-817 0q-92 0-92 92l0 816q0 92 92 92" horiz-adv-x="1001" />

<glyph glyph-name="hm-added-to-list" unicode="&#xe879;" d="M92 850l817 0q92 0 92-92l0-816q0-92-92-92l-817 0q-92 0-92 92l0 816q0 92 92 92m407-516l214 307 1 2 2 0 0 1 3 1 5 0 4-1 1 0 4-1 56-39 7-11q1-7-3-12l-262-380-4-6-3-1-3-2-5-2-11 0-4 1-2 1-3 2-2 1-165 165q-4 4-4 12l6 12 48 48 5 4 2 0 3 1 5-1 2 0 5-4 98-98m368 379l-731 0 0-86 250 0q58 23 116 23 61 0 115-23l6-3-30-44q-44 17-89 17-104 0-177-73-73-74-73-177 0-104 73-176 73-73 177-73 102 0 175 73 72 73 72 176l-5 50 47 70 74 0 0 85-15 0q13 25 8 52l-8 23 15 0 0 86m-64-366l-2-41 66 0 0 86-66 0 2-45m-603 0l3 45-67 0 0-86 67 0-3 41m80 205l-143 0 0-85 88 0q19 45 55 85m-57-321l-87 0 0-86 141 0q-33 36-54 86m279-186q-64 0-121 25l-245 0 0-87 731 0 0 87-245 0q-60-25-120-25m224 100l141 0 0 86-87 0q-18-45-54-86" horiz-adv-x="1001" />

<glyph glyph-name="ica" unicode="&#xe87a;" d="M500 601l66-129-131 0 65 129m-46-398l0-30 92 0 0 30q21 11 33 32 13 21 13 46 0 31-21 56l0 0 0 64-35-34-36 34-35-34-36 34 0-64 1 0q-21-25-21-56 0-25 12-46 13-21 33-32m406-160l-329 649q-13 25-31 25-18 0-31-25l-329-649q-13-24-2-43 11-18 40-18l645 0q28 0 39 18 12 19-2 43m-768 807l817 0q92 0 92-92l0-816q0-92-92-92l-817 0q-92 0-92 92l0 816q0 92 92 92m372-593q-10 0-18 6-6 8-6 18 0 9 6 16 8 7 18 7 10 0 17-7 7-7 7-16 0-10-7-18-7-6-17-6m-178-80l64-127-129 0 65 127m252-51l60 26-13 27-85-37-85 37-12-27 60-26-60-26 12-27 85 36 85-36 13 27-60 26m151 102l-89-178-199 0-90 178 101 199 177 0 100-199m-152 29q-10 0-18 6-6 8-6 18 0 9 6 16 8 7 18 7 10 0 17-7 7-7 7-16 0-10-7-18-7-6-17-6m114-207l64 127 65-127-129 0" horiz-adv-x="1001" />

<glyph glyph-name="info" unicode="&#xe87b;" d="M581 685q-33 33-81 33-47 0-80-33-34-34-34-81 0-48 34-80 33-34 80-34 48 0 81 34 34 32 34 80 0 47-34 81m-489 165l817 0q92 0 92-92l0-816q0-92-92-92l-817 0q-92 0-92 92l0 816q0 92 92 92m521-413l-315 0 0-79 88 0 0-375 227 0 0 454" horiz-adv-x="1001" />

<glyph glyph-name="intel" unicode="&#xe87c;" d="M92 850l817 0q92 0 92-92l0-816q0-92-92-92l-817 0q-92 0-92 92l0 816q0 92 92 92m675-133q-41 0-70-30-29-29-29-70 0-41 29-70 29-29 70-29 42 0 71 29 30 29 30 70 0 41-30 70-29 30-71 30m-267 0q-41 0-71-30-29-29-29-70 0-41 29-70 30-29 71-29 20 0 41 9l136-136q-9-21-9-41 0-41 29-70 29-30 70-30 42 0 71 30 30 29 30 70 0 41-30 71-29 29-71 29-20 0-41-9l-135 135q9 20 9 41 0 41-30 70-29 30-70 30m0-267q-21 0-41-9l-136 135q9 20 9 41 0 41-29 70-28 30-70 30-42 0-71-30-29-29-29-70 0-41 29-70 30-29 71-29 19 0 41 9l135-136q-9-22-9-41 0-20 9-41l-135-136q-22 10-41 10-41 0-71-30-29-29-29-70 0-41 29-70 29-30 71-30 42 0 70 30 29 28 29 70 0 21-9 42l136 135q19-10 41-10 22 0 41 10l136-135q-9-23-9-42 0-41 29-70 29-30 70-30 42 0 71 30 30 29 30 70 0 41-30 70-29 30-71 30-18 0-41-10l-135 136q9 19 9 41 0 41-30 71-29 29-70 29m-338-29q-29-30-29-71 0-41 29-70 29-30 71-30 42 0 70 30 29 29 29 70 0 41-29 71-29 29-70 29-41 0-71-29m408-268q-29 30-70 30-41 0-71-30-29-29-29-70 0-41 29-70 30-30 71-30 41 0 70 30 30 28 30 70 0 42-30 70" horiz-adv-x="1001" />

<glyph glyph-name="inventory" unicode="&#xe87d;" d="M92 850l817 0q92 0 92-92l0-816q0-92-92-92l-817 0q-92 0-92 92l0 816q0 92 92 92m408-193l258-111-258-112-258 112 258 111m378-103l0 1-3 7-1 1-4 6 0 1-6 4-1 0-4 3-345 149q-14 4-27 0l-345-149-4-3-1 0-1 0-6-4 0-1-4-6-1-1-3-7 0-1-1-8 0-393q0-23 21-31l350-151 2 0 6-1 6 1 2 0 351 151q9 5 15 13l6 18 0 393-2 8m-343-498l0 319 276 119 0-319-276-119m-345 438l276-119 0-319-276 119 0 319" horiz-adv-x="1001" />

<glyph glyph-name="ioi-account" unicode="&#xe87e;" d="M872 517l0 39-62 0 0-39 62 0-62-61 0-311 62 0 0 372m-323-372l173 172 0 67-173 172-94 0-172-172 0-67 171-172 95 0m120 205l-167-166-166 166 166 167 167-167m-577 500l817 0q92 0 92-92l0-816q0-92-92-92l-817 0q-92 0-92 92l0 816q0 92 92 92m100-333l0 39-62 0 0-39 62 0-62-61 0-311 62 0 0 372" horiz-adv-x="1001" />

<glyph glyph-name="key" unicode="&#xe87f;" d="M92 850l817 0q92 0 92-92l0-816q0-92-92-92l-817 0q-92 0-92 92l0 816q0 92 92 92m423-169q-48-48-61-113-14-64 8-125l-362-362 0-128 134 0 58 57-23 79 87-16-3 73 77 0-9 92 29 29 83-20 63 62q62-22 126-9 65 15 112 62 67 66 67 159 0 93-67 160-66 66-160 66-93 0-159-66m265-150q-20-20-49-20-27 0-47 20-20 20-20 48 0 27 20 47 20 21 47 21 29 0 49-21 19-20 19-47 0-28-19-48" horiz-adv-x="1001" />

<glyph glyph-name="knock-down" unicode="&#xe880;" d="M92 850l817 0q92 0 92-92l0-816q0-92-92-92l-817 0q-92 0-92 92l0 816q0 92 92 92m776-612l0 160q0 118-116 231l-80 66-36 22-24-24 47-69q47-86 47-164 0-26-17-44-19-18-44-18l-29 0 0-163 29 0q25 0 44-18 17-19 17-44 0-16-5-31-6-17-15-25l-32 0q-4 0-6-2l-3-8 0-115 3-6 6-4 204 0 7 4 3 6 0 115-3 8-7 2-31 0q-9 8-16 25-5 16-5 31 0 25 18 42 16 18 40 20l4 3m-283-3l0 163-452 0 0-163 452 0" horiz-adv-x="1001" />

<glyph glyph-name="language" unicode="&#xe881;" d="M868 599q-65 34-145 29-49-3-146-29-96-26-144-29-81-6-145 29l0-326q64-34 145-29 48 4 144 29 97 27 146 29 80 6 145-29l0 326m-776 251l817 0q92 0 92-92l0-816q0-92-92-92l-817 0q-92 0-92 92l0 816q0 92 92 92m202-211l0 23q0 23-17 39-16 16-38 16l-50 0q-24 0-40-16-16-16-16-39l0-23 42 0 0-657 76 0 0 657 43 0" horiz-adv-x="1001" />

<glyph glyph-name="leaderboard" unicode="&#xe882;" d="M835 327l-190 0 0 235q0 13-10 22-10 10-23 10l-223 0q-14 0-23-10-10-9-10-22l0-235-191 0q-13 0-23-9-9-10-9-24l0-287q0-10 7-17 7-8 17-8l686 0q10 0 17 8 8 7 8 17l0 287q0 14-10 24-9 9-23 9m-743 523l817 0q92 0 92-92l0-816q0-92-92-92l-817 0q-92 0-92 92l0 816q0 92 92 92m441-537l-51 0 0 133-44 0 0 35q22 1 35 11 16 10 20 32l40 0 0-211m-177-259l-161 0 3 24 8 19 11 16 15 14 29 24 29 22 11 12q3 6 3 14 0 11-6 20-7 6-21 6-15 0-22-9l-7-12-2-18-48 0 3 30 11 23q9 12 26 20 16 8 41 8l32-5q14-4 25-14 10-9 14-21 6-13 6-27l-3-19-8-16-11-13-13-11-43-33-13-11 0-1 91 0 0-42m440 34l-18-21-26-11-32-4-37 5q-17 6-28 15-22 20-22 57l47 0q1-18 10-28 9-9 29-9 15 0 24 8 8 6 8 20 0 14-9 21-10 7-27 7l-12 0 0 35 11 0q15 0 24 7 9 5 9 18 0 11-8 17-7 7-19 7-18 0-25-9-7-9-8-23l-48 0q0 13 6 28 5 12 15 22l25 15 35 4 31-3q15-4 25-12 10-8 15-19 6-10 6-24 0-17-9-26-9-10-22-16l0 0q17-6 27-18 10-13 10-34 0-17-7-29" horiz-adv-x="1001" />

<glyph glyph-name="leaderboard-friends" unicode="&#xe883;" d="M92 850l817 0q92 0 92-92l0-816q0-92-92-92l-817 0q-92 0-92 92l0 816q0 92 92 92m506-231q0 41-29 69-29 29-69 29-40 0-69-29-29-28-29-69 0-41 29-70 29-29 69-29 40 0 69 29 29 29 29 70m270 0q0 41-29 69-29 29-69 29-41 0-69-29-29-28-29-69 0-41 29-70 28-29 69-29 40 0 69 29 29 29 29 70m-301-135l-134 0q-13 0-22-9-9-9-9-22l0-471 68 0 0 249 60 0 0-249 68 0 0 471q0 13-9 22-9 9-22 9m270 0l-134 0q-12 0-22-9-9-9-9-22l0-471 69 0 0 249 58 0 0-249 69 0 0 471q0 13-9 22-10 9-22 9m-508 135q0 41-29 69-29 29-70 29-40 0-68-29-29-28-29-69 0-41 29-70 28-29 68-29 41 0 70 29 29 29 29 70m-32-135l-134 0q-12 0-21-9-9-9-9-22l0-471 68 0 0 249 58 0 0-249 70 0 0 471q0 13-10 22-9 9-22 9" horiz-adv-x="1001" />

<glyph glyph-name="livetile-news" unicode="&#xe884;" d="M794 492l0 153q0 13-11 20l-23 1-288-138 0-236 288-139 23 1q11 7 11 21l0 142q32 5 53 29 21 25 21 58 0 33-21 58-21 23-53 30m-702 358l817 0q92 0 92-92l0-816q0-92-92-92l-817 0q-92 0-92 92l0 816q0 92 92 92m65-387l0-12q-10 0-17-6-7-8-7-18l0-35q0-11 7-17 7-8 17-8l0-10q0-26 19-45 18-18 45-18l212 0 0 232-212 0q-27 0-45-19-19-18-19-44m60-392q-5-14 5-27 10-14 26-14l63 0q21 0 39 14 17 13 23 34l56 183-154 0-58-190" horiz-adv-x="1001" />

<glyph glyph-name="load" unicode="&#xe885;" d="M712 402l0 122-212 193-212-193 0-122 164 150 0-280 96 0 0 280 164-150m-620 448l817 0q92 0 92-92l0-816q0-92-92-92l-817 0q-92 0-92 92l0 816q0 92 92 92m571-728q18 0 32 13 11 13 11 30 0 18-11 31-14 12-32 12l-325 0q-18 0-31-12-12-13-12-31 0-17 12-30 13-13 31-13l325 0m-530 173l0-247q0-28 19-47 20-19 46-19l605 0q27 0 46 19 19 19 19 47l0 247-87 0 0-226-562 0 0 226-86 0" horiz-adv-x="1001" />

<glyph glyph-name="loadout" unicode="&#xe886;" d="M836-18q13 0 23 9 9 10 9 23l0 672q0 13-9 22-10 9-23 9-14 0-23-9-9-9-9-22l0-640-607 0 0 640q0 13-9 22-10 9-23 9-13 0-22-9-10-9-10-22l0-672q0-13 10-23 9-9 22-9l671 0m-744 868l817 0q92 0 92-92l0-816q0-92-92-92l-817 0q-92 0-92 92l0 816q0 92 92 92m329-431q-6 5-2 22l14 31 40-41-21-42-31 30m-41-239l172-90 102 197 45-24 44 75-87 86-12-12-304 303-75-75 137-138q-46-77-11-113l63-62-74-147" horiz-adv-x="1001" />

<glyph glyph-name="location" unicode="&#xe887;" d="M659 397l-267 320-15-13 81-307-166 0-151 119-8-6 84-159 0-3-84-158 8-7 151 119 166 0-81-307 15-13 267 320 142 0q21 0 44 14 23 15 23 33 0 19-23 34-23 14-44 14l-142 0m-567 453l817 0q92 0 92-92l0-816q0-92-92-92l-817 0q-92 0-92 92l0 816q0 92 92 92" horiz-adv-x="1001" />

<glyph glyph-name="locked" unicode="&#xe888;" d="M92 850l817 0q92 0 92-92l0-816q0-92-92-92l-817 0q-92 0-92 92l0 816q0 92 92 92m514-347l0-110-210 0 0 110q0 44 30 75 31 30 75 30 43 0 74-30 31-31 31-75m-105 214q-88 0-151-63-63-63-63-151l0-110-39 0q-14 0-23-10-9-10-9-23l0-345q0-14 9-23 9-10 23-10l506 0q13 0 22 10 10 9 10 23l0 345q0 13-10 23-9 10-22 10l-40 0 0 110q0 88-62 151-63 63-151 63m32-623q0-14-10-23-9-9-22-9-14 0-22 9-10 9-10 23l0 92q-15 8-23 22-9 15-9 32 0 26 19 44 19 18 45 18 26 0 44-18 19-18 19-44 0-17-8-32-8-14-23-22l0-92" horiz-adv-x="1001" />

<glyph glyph-name="long-range" unicode="&#xe889;" d="M92 850l817 0q92 0 92-92l0-816q0-92-92-92l-817 0q-92 0-92 92l0 816q0 92 92 92m756-705l-23 161 18 0q10 0 16 8 6 7 4 16l-39 236q-2 10-10 17-7 7-18 7l-22 0 0 64 19 0 0 55q0 8-9 8l-158 0q-8 0-8-8l0-55 19 0 0-64-36 0q-7 0-13-5-5-6-5-13l0-33-31 0 0 14q0 17-12 28-12 13-28 13l-22 0q-17 0-29-13-12-11-12-28l0-14-32 0 0 33q0 7-5 13-5 5-13 5l-35 0 0 64 19 0 0 55q0 8-8 8l-158 0q-8 0-8-8l0-55 19 0 0-64-23 0q-11 0-19-7-8-7-10-17l-39-236q-1-9 4-16 7-8 16-8l19 0-24-161q-19-8-19-28l0-102q0-14 9-23 10-10 23-10l227 0q14 0 23 10 10 9 10 23l0 102q0 10-8 19-5 8-16 11l-16 159 32 0 0 2 32 0 0-18q0-17 12-28 12-12 29-12l22 0q16 0 28 12 12 11 12 28l0 18 31 0 0-2 32 0-15-159q-11-3-17-11-7-9-7-19l0-102q0-14 9-23 10-10 24-10l226 0q14 0 23 10 10 9 10 23l0 102q0 10-6 17-5 8-14 11" horiz-adv-x="1001" />

<glyph glyph-name="map" unicode="&#xe88a;" d="M868 647q0 12-8 21-7 9-19 11l-191 37 0-690 178-35 7 0q14 0 23 10 10 9 10 22l0 624m-776 203l817 0q92 0 92-92l0-816q0-92-92-92l-817 0q-92 0-92 92l0 816q0 92 92 92m258-176l-178 35-7 0q-13 0-23-9-9-10-9-23l0-624q0-11 7-21 8-8 19-10l191-38 0 690m259 42l-218-42 0-690 218 42 0 690" horiz-adv-x="1001" />

<glyph glyph-name="marksman" unicode="&#xe88b;" d="M92 850l817 0q92 0 92-92l0-816q0-92-92-92l-817 0q-92 0-92 92l0 816q0 92 92 92m767-500q13 14 13 33 0 21-13 35-14 13-34 13-19 0-33-13l-24-24q-44 29-97 35l0 44 30 0q10 0 17 8 7 6 7 16 0 11-7 17-7 7-17 7l-108 0q-10 0-17-7-6-6-6-17 0-10 6-16 7-8 17-8l30 0 0-44q-84-9-142-73-58-64-58-150 0-93 66-158 65-66 158-66 94 0 159 66 66 65 66 158 0 66-36 121l23 23m-212-189q-18 0-31 13-14 13-14 32 0 14 8 25 8 12 21 17l0 96q0 7 5 11 5 5 11 5 7 0 12-5l4-11 0-96q13-5 21-17 8-11 8-25 0-18-13-32-13-13-32-13m-151 397l-31 0q-7 50-42 87-37 37-87 44l0 30-47 0 0-30q-50-7-86-44-36-37-44-87l-30 0 0-46 30 0q8-51 44-87 36-35 86-43l0-30 47 0 0 30q50 7 87 43 35 36 42 87l31 0 0 46m-160-129l0 25-47 0 0-25q-31 7-54 29-22 23-29 54l25 0 0 46-25 0q7 32 29 55 23 22 54 29l0-26 47 0 0 26q30-7 54-29 22-23 29-55l-26 0 0-46 26 0q-7-31-29-54-24-22-54-29" horiz-adv-x="1001" />

<glyph glyph-name="marksman-2" unicode="&#xe88c;" d="M92 850l817 0q92 0 92-92l0-816q0-92-92-92l-817 0q-92 0-92 92l0 816q0 92 92 92m766-502q14 15 14 34 0 20-14 34-13 14-34 14-19 0-33-14l-23-23q-45 29-97 34l0 45 30 0q9 0 17 7 6 7 6 17 0 10-6 17-8 7-17 7l-108 0q-10 0-18-7-6-7-6-17 0-10 6-17 8-7 18-7l30 0 0-45q-84-9-143-72-57-64-57-150 0-94 65-159 66-66 159-66 93 0 158 66 66 65 66 159 0 66-36 121l23 22m-362 210l-31 0q-7 50-42 87-37 37-87 44l0 30-47 0 0-30q-50-7-86-44-36-37-44-87l-30 0 0-46 30 0q8-51 44-87 36-35 86-43l0-30 47 0 0 30q50 7 87 43 35 36 42 87l31 0 0 46m-160-129l0 25-47 0 0-25q-31 7-54 29-22 23-29 54l25 0 0 46-25 0q7 32 29 55 23 22 54 29l0-26 47 0 0 26q30-7 54-29 22-23 29-55l-26 0 0-46 26 0q-7-31-29-54-24-22-54-29m-53-231l-40-39 31-31 39 40 38-38 29 29-38 38 41 39-31 31-40-40-37 38-29-29 37-38m255-121l4 30q4 14 10 25l14 20 19 18 40 30 37 29 13 15q4 8 4 18 0 16-8 26-9 9-26 9-19 0-29-12-6-6-9-16-3-10-3-23l-62 0q0 23 4 39 4 15 14 29 11 16 33 27 21 9 53 9l43-6q19-7 31-19 13-11 19-27 7-15 7-33l-4-25-10-21-14-17-17-14-18-15-20-13-18-14-16-14 0-1 118 0 0-54-209 0" horiz-adv-x="1001" />

<glyph glyph-name="marksman-3" unicode="&#xe88d;" d="M92 850l817 0q92 0 92-92l0-816q0-92-92-92l-817 0q-92 0-92 92l0 816q0 92 92 92m767-500q13 14 13 33 0 21-13 35-14 13-34 13-19 0-33-13l-24-24q-44 29-97 35l0 44 30 0q10 0 17 8 7 6 7 16 0 11-7 17-7 7-17 7l-108 0q-10 0-17-7-6-6-6-17 0-10 6-16 7-8 17-8l30 0 0-44q-84-9-142-73-58-64-58-150 0-93 66-158 65-66 158-66 94 0 159 66 66 65 66 158 0 66-36 121l23 23m-363 208l-31 0q-7 50-42 87-37 37-87 44l0 30-47 0 0-30q-50-7-86-44-36-37-44-87l-30 0 0-46 30 0q8-51 44-87 36-35 86-43l0-30 47 0 0 30q50 7 87 43 35 36 42 87l31 0 0 46m-160-129l0 25-47 0 0-25q-31 7-54 29-22 23-29 54l25 0 0 46-25 0q7 32 29 55 23 22 54 29l0-26 47 0 0 26q30-7 54-29 22-23 29-55l-26 0 0-46 26 0q-7-31-29-54-24-22-54-29m-53-231l-40-39 31-31 39 40 38-38 29 29-38 38 41 39-31 31-40-40-37 38-29-29 37-38m367-128l-50 7q-21 6-34 19-31 26-31 73l63 0q1-21 12-35 12-14 37-14 21 0 31 10 11 11 11 27 0 18-12 27-11 9-34 9l-16 0 0 46 15 0q18 0 30 8 11 8 11 23 0 14-9 22-10 9-26 9-21 0-32-13-10-11-11-29l-61 0q0 20 7 37 7 17 20 29 14 12 33 19l45 6 40-5q18-5 31-15 13-10 21-24 8-14 8-31 0-21-12-35-12-12-30-19l0-1q22-7 36-23 13-16 13-43 0-22-9-37-8-17-23-27-15-10-34-15l-40-5" horiz-adv-x="1001" />

<glyph glyph-name="marksman-4" unicode="&#xe88e;" d="M92 850l817 0q92 0 92-92l0-816q0-92-92-92l-817 0q-92 0-92 92l0 816q0 92 92 92m767-500q13 14 13 33 0 21-13 35-14 13-34 13-19 0-33-13l-24-24q-44 29-97 35l0 44 30 0q10 0 17 8 7 6 7 16 0 11-7 17-7 7-17 7l-108 0q-10 0-17-7-6-6-6-17 0-10 6-16 7-8 17-8l30 0 0-44q-84-9-142-73-58-64-58-150 0-93 66-158 65-66 158-66 94 0 159 66 66 65 66 158 0 66-36 121l23 23m-363 208l-31 0q-7 50-42 87-37 37-87 44l0 30-47 0 0-30q-50-7-86-44-36-37-44-87l-30 0 0-46 30 0q8-51 44-87 36-35 86-43l0-30 47 0 0 30q50 7 87 43 35 36 42 87l31 0 0 46m-160-129l0 25-47 0 0-25q-31 7-54 29-22 23-29 54l25 0 0 46-25 0q7 32 29 55 23 22 54 29l0-26 47 0 0 26q30-7 54-29 22-23 29-55l-26 0 0-46 26 0q-7-31-29-54-24-22-54-29m-53-231l-40-39 31-31 39 40 38-38 29 29-38 38 41 39-31 31-40-40-37 38-29-29 37-38m366-61l-126 0 0 61 125 151 66 0 0-161 38 0 0-51-38 0 0-59-65 0 0 59m0 51l0 92-1 0-74-92 0 0 75 0" horiz-adv-x="1001" />

<glyph glyph-name="melee" unicode="&#xe88f;" d="M92 850l817 0q92 0 92-92l0-816q0-92-92-92l-817 0q-92 0-92 92l0 816q0 92 92 92m666-759q1 18-6 35 33 3 56 28 22 25 22 59 0 22-10 41 21 11 35 31 13 22 13 46 0 26-13 47-14 20-35 32 10 18 10 38 2 37-24 64-26 26-64 26l-198 0q14 23 18 50 2 26-10 50-19 40-60 51-40 13-77-7l-172-95q-51-28-81-78-29-50-29-108l0-184q0-87 62-149 62-63 150-63l323 0q36 0 63 25 26 26 27 61m-413-29q-65 0-111 46-45 45-45 109l0 184q0 43 22 80 21 37 58 57l173 95 34 2q17-5 25-21 5-11 4-24-2-12-9-22l-64-85 310 0q14 0 24-10 9-11 8-23 0-13-10-22-10-9-24-9l-210 0q-12 0-20-8-8-8-8-20 0-11 8-20 8-8 20-8l250 0q13 0 23-9 9-10 9-23 0-12-9-21-10-10-23-10l-250 0q-12 0-20-8-8-8-8-20 0-12 8-20 8-8 20-8l212 0q14 0 23-9 9-10 9-22 0-13-9-23-9-9-23-9l-226 0q-12 0-20-8-9-8-9-20 0-11 9-20 8-8 20-8l155 0q13 0 22-10 9-10 9-23-1-12-10-21-11-9-24-9l-323 0" horiz-adv-x="1001" />

<glyph glyph-name="mission" unicode="&#xe890;" d="M92 850l817 0q92 0 92-92l0-816q0-92-92-92l-817 0q-92 0-92 92l0 816q0 92 92 92m477-431q-28 29-69 29-40 0-69-29-28-29-28-69 0-40 28-69 29-29 69-29 41 0 69 29 29 29 29 69 0 40-29 69m53 53q50-51 50-122 0-71-50-121-51-50-122-50-70 0-121 50-50 50-50 121 0 71 50 122 51 50 121 50 71 0 122-50m-122 119q-99 0-170-71-70-70-70-170 0-100 70-170 71-71 170-71 100 0 170 71 71 71 71 170 0 100-71 170-70 71-170 71m211-31q88-87 88-210 0-123-88-210-88-88-211-88-123 0-210 88-88 87-88 210 0 123 88 210 87 88 210 88 123 0 211-88m49 50q-108 107-260 107-152 0-259-107-108-108-108-260 0-152 108-259 107-109 259-109 152 0 260 109 108 107 108 259 0 152-108 260" horiz-adv-x="1001" />

<glyph glyph-name="mouse-keyboard" unicode="&#xe891;" d="M92 850l817 0q92 0 92-92l0-816q0-92-92-92l-817 0q-92 0-92 92l0 816q0 92 92 92m743-136l-670 0q-13 0-22-9-10-9-10-23l0-334q0-13 10-23 9-10 22-10l251 0 42 42-154 0-8 3-2 7 0 49 2 8 8 3 242 0q50 19 101 0l54 0 7-3 4-8 0-36 45-45 17-20 61 0q14 0 24 10 9 10 9 23l0 334q0 14-9 23-10 9-24 9m-7-100l-3-8q-4-3-8-3l-48 0q-4 0-8 3l-3 8 0 48 3 7 8 4 48 0 8-4 3-7 0-48m-116 0l-4-8q-2-3-7-3l-49 0q-4 0-7 3l-3 8 0 48 3 7 7 4 49 0q5 0 7-4l4-7 0-48m0-123l-4-8q-2-3-7-3l-49 0q-4 0-7 3l-3 8 0 48 3 8 7 3 49 0 7-3 4-8 0-48m116 0l-3-8q-4-3-8-3l-48 0q-4 0-8 3l-3 8 0 48 3 8 8 3 48 0 8-3 3-8 0-48m-232 123l-4-8q-3-3-7-3l-48 0q-5 0-8 3l-4 8 0 48q0 4 4 7l8 4 48 0 7-4 4-7 0-48m0-123l-4-8q-3-3-7-3l-48 0q-5 0-8 3l-4 8 0 48q0 5 4 8l8 3 48 0 7-3 4-8 0-48m-38-272l127 126-18 19q-30 30-71 30-41 0-71-30l-56-55 89-90m270 148l-3-7q-4-3-8-3l-48 0q-4 0-8 3l-3 7 0 49 3 8 8 3 48 0 8-3 3-8 0-49m-581 124q0-11-11-11l-48 0q-4 0-7 3l-4 8 0 48 4 8 7 3 48 0 8-3 3-8 0-48m0 123q0-11-11-11l-48 0q-4 0-7 3l-4 8 0 48 4 7 7 4 48 0q5 0 8-4l3-7 0-48m0-247q0-10-11-10l-48 0q-4 0-7 3l-4 7 0 49 4 8 7 3 48 0 8-3 3-8 0-49m232 247l-2-8q-4-3-8-3l-49 0q-4 0-7 3l-3 8 0 48 3 7 7 4 49 0q4 0 8-4l2-7 0-48m0-123l-2-8q-4-3-8-3l-49 0q-4 0-7 3l-3 8 0 48 3 8 7 3 49 0 8-3 2-8 0-48m-115 123q0-5-4-8-3-3-7-3l-49 0-8 3-2 8 0 48 2 7 8 4 49 0 7-4 4-7 0-48m0-123q0-5-4-8-3-3-7-3l-49 0-8 3-2 8 0 48 2 8 8 3 49 0 7-3 4-8 0-48m82-206l-69-69q-29-30-29-72 0-41 29-69l60-61q29-29 71-29 41 0 70 29l70 70-202 201m136-89l89-89 55 55q30 30 30 71 0 42-30 71l-18 19-126-127" horiz-adv-x="1001" />

<glyph glyph-name="next-level" unicode="&#xe892;" d="M92 850l817 0q92 0 92-92l0-816q0-92-92-92l-817 0q-92 0-92 92l0 816q0 92 92 92m776-713l0 580-581 0-154-155 470 0-408-408 109-110 410 409 0-471 154 155" horiz-adv-x="1001" />

<glyph glyph-name="nodus" unicode="&#xe893;" d="M92 850l817 0q92 0 92-92l0-816q0-92-92-92l-817 0q-92 0-92 92l0 816q0 92 92 92m657-558l0-213-498 0 0 213 498 0m-509 282l520 0 78 143-675 0 77-143m628 95l-76-140-584 0-75 140 0-652q0-14 11-25 11-10 27-10l659 0q16 0 27 10 11 11 11 25l0 652m-412-212q0 16 13 28 13 12 31 12 18 0 31-12 13-12 13-28 0-16-13-28-13-12-31-12-18 0-31 12-13 12-13 28m0 186q0 16 13 27 13 12 31 12 18 0 31-12 13-11 13-27 0-17-13-28-13-12-31-12-18 0-31 12-13 11-13 28m236-482l-384 0 0-45 384 0 0 45m0 50l0 45-384 0 0-45 384 0" horiz-adv-x="1001" />

<glyph glyph-name="npc" unicode="&#xe894;" d="M722 471q0 86-61 147-61 61-147 61-87 0-149-61-60-61-60-147 0-86 60-147 62-61 149-61 86 0 147 61 61 61 61 147m-630 379l817 0q92 0 92-92l0-816q0-92-92-92l-817 0q-92 0-92 92l0 816q0 92 92 92m763-855l0 89q0 62-43 105-44 44-106 44l-386 0q-61 0-105-44-42-43-42-105l0-89 682 0" horiz-adv-x="1001" />

<glyph glyph-name="nvidia" unicode="&#xe895;" d="M406 527l13 0q104 3 201-66 48-35 75-71l-22-24-57-52q-95-76-176-76l-34 2 0-40 28-2q83 0 161 41 57 29 133 95l42-25 41-25q-58-50-178-87-114-36-198-36l-29 1 0-57 460 0 0 488-460 0 0-66q-92-7-192-73-50-33-83-64l15-32q19-40 47-74 86-109 213-122l0 38q-93 13-155 99-20 26-34 58l-10 26q16 24 49 50 67 52 150 58l0-44q-56-6-106-38l-38-31 7-18 23-43q44-63 114-77l0 35 36-5q56 0 122 59l54 60q-20 26-54 52-70 53-145 51l-13-1 0 36m0-118l0-134q-40 13-66 56l-18 40 25 21q29 21 59 17l0 38 24 1q49 0 90-30 21-14 32-29l-62-53q-25 42-35 52-17 18-49 21m-314 441l817 0q92 0 92-92l0-816q0-92-92-92l-817 0q-92 0-92 92l0 816q0 92 92 92" horiz-adv-x="1001" />

<glyph glyph-name="objective" unicode="&#xe896;" d="M92 850l817 0q92 0 92-92l0-816q0-92-92-92l-817 0q-92 0-92 92l0 816q0 92 92 92m764-199q11 11 11 27 0 17-11 28-11 11-28 11-16 0-27-11l-301-356 356 301m-49-98l-73-61q40-65 40-142 0-113-80-194-81-79-194-79-113 0-193 79-80 81-80 194 0 113 80 193 80 81 193 81 77 0 142-40l61 73q-92 60-203 60-152 0-259-108-108-107-108-259 0-152 108-260 107-108 259-108 152 0 260 108 108 108 108 260 0 110-61 203m-215-203q0-39-26-65-27-27-66-27-38 0-65 27-27 26-27 65 0 39 27 66 27 26 65 26l20-2 63 74q-39 20-83 20-76 0-130-54-54-54-54-130 0-76 54-131 54-53 130-53 76 0 131 53 53 55 53 131 0 43-20 83l-74-63 2-20" horiz-adv-x="1001" />

<glyph glyph-name="one-man-army" unicode="&#xe897;" d="M812 529l16 10q40 13 40 25 0 8-20 17l-20 8-16 10-9 0 0 22 9 0 16 9q40 13 40 25 0 13-40 25l-16 9-9 0 0 12-5 11-12 5-238 0q-6 0-11-5-5-4-5-11l0-644-25 0 0-49q0-11 7-18 7-8 17-8l272 0q11 0 17 8 8 7 8 18l0 49-25 0 0 18 9 0 16 10q40 13 40 25 0 8-20 17l-20 8-16 9-9 0 0 23 9 0 16 9q40 12 40 25 0 8-20 17l-20 8-16 9-9 0 0 23 9 0 16 9q40 12 40 25 0 8-20 17l-36 18-9 0 0 21 9 0 16 10q40 12 40 25 0 8-20 17l-20 8-16 9-9 0 0 22 9 0 16 9q40 12 40 26 0 7-20 17l-20 8-16 9-9 0 0 21 9 0m-720 321l817 0q92 0 92-92l0-816q0-92-92-92l-817 0q-92 0-92 92l0 816q0 92 92 92m675-308l-203 0 0 48 203 0 0-48m0-181l-203 0 0 48 203 0 0-48m0 89l-203 0 0 50 203 0 0-50m0 183l-203 0 0 47 203 0 0-47m-329-104l16 10q40 13 40 25 0 8-20 17l-20 8-16 10-9 0 0 22 9 0 16 9q40 13 40 25 0 13-40 25l-16 9-9 0 0 12q0 7-4 11-6 5-13 5l-237 0q-7 0-12-5-4-4-4-11l0-644-26 0 0-49q0-11 7-18 8-8 18-8l271 0q11 0 18 8 7 7 7 18l0 49-25 0 0 18 9 0 16 10q40 13 40 25 0 8-20 17l-20 8-16 9-9 0 0 23 9 0 16 9q40 12 40 25 0 8-20 17l-20 8-16 9-9 0 0 23 9 0 16 9q40 12 40 25 0 8-20 17l-36 18-9 0 0 21 9 0 16 10q40 12 40 25 0 8-20 17l-20 8-16 9-9 0 0 22 9 0 16 9q40 12 40 26 0 7-20 17l-20 8-16 9-9 0 0 21 9 0m-45 13l-203 0 0 48 203 0 0-48m0-181l-203 0 0 48 203 0 0-48m0 89l-203 0 0 50 203 0 0-50m0 183l-203 0 0 47 203 0 0-47" horiz-adv-x="1001" />

<glyph glyph-name="online" unicode="&#xe898;" d="M92 850l817 0q92 0 92-92l0-816q0-92-92-92l-817 0q-92 0-92 92l0 816q0 92 92 92m596-788q73 47 115 124 42 77 42 164 0 87-41 163-40 76-113 124-14 9-29 6-17-4-27-17-9-14-6-31 3-16 18-25 54-37 85-95 32-59 32-125 0-66-33-125-32-58-87-95-15-9-18-26-4-16 5-29 13-20 35-20 11 0 22 7m-97 106l22 6q45 30 72 76 25 46 25 100 0 52-25 99-23 46-67 76-15 8-31 6-16-3-25-18-10-13-7-30 3-16 17-25 27-18 42-47 15-28 15-61 0-33-16-61-16-29-43-47-14-9-18-25-4-17 5-31 12-18 34-18m-91 236q-24 0-40-17-18-16-18-41 0-23 18-39 16-17 40-17 23 0 41 17 17 16 17 39 0 25-17 41-18 17-41 17m-131-329q8 13 5 29-3 17-18 26-56 37-87 95-33 59-33 125 0 66 32 125 30 58 86 95 13 9 17 25 3 17-6 31-9 13-27 17-16 3-30-6-72-48-112-124-41-76-41-163 0-87 43-164 41-77 114-124l22-7q22 0 35 20m73 111q10 14 6 31-4 16-18 25-28 18-44 47-15 28-15 61 0 33 15 61 15 29 41 47 15 9 17 25 4 17-6 30-9 15-26 18-16 2-29-6-45-30-69-76-24-47-24-99 0-54 26-100 25-46 70-76l23-6q22 0 33 18" horiz-adv-x="1001" />

<glyph glyph-name="opportunity-completed" unicode="&#xe899;" d="M92 850l817 0q92 0 92-92l0-816q0-92-92-92l-817 0q-92 0-92 92l0 816q0 92 92 92m560-245q-63 63-152 63l-12-1q-82-5-143-69-61-65-59-148 0-54 27-102 27-46 72-75l0-65q0-18 13-30 12-13 29-13l146 0q18 0 31 13 12 12 12 30l0 65q46 29 73 77 26 48 26 103 0 42-14 78l36 52 3 10-7 8-44 32-11 2-9-5-17-25 0-1q33-32 49-73l-178-258q-6-9-17-10-11-1-19 7l-130 130-3 10 4 10 39 39 10 3 9-3 80-80 156 226m-33-511q0 8-5 15-6 6-15 6l-190 0q-9 0-15-6-6-7-6-15l0-54q0-9 6-15 6-6 15-6l16-2q12-1 13-4l14-25 11-6 75 0 10 6 15 25q3 6 10 6l26 0q9 0 15 6 5 6 5 15l0 54" horiz-adv-x="1001" />

<glyph glyph-name="opportunity-disabled" unicode="&#xe89a;" d="M92 850l817 0q92 0 92-92l0-816q0-92-92-92l-817 0q-92 0-92 92l0 816q0 92 92 92m552-485l3-8-3-8-39-39q-4-4-8-4-5 0-8 4l-89 88-88-88q-4-4-8-4l-9 4-39 39-3 8 3 8 88 89-88 89-3 8 3 7 39 40 9 3 8-3 88-89 89 89 8 3 8-3 39-40 3-7-3-8-88-89 88-89m-24-273q0 9-5 15-6 6-15 6l-190 0q-9 0-15-6-6-6-6-15l0-53 6-15q6-6 15-6l16-2 14-3 14-26q4-6 10-6l75 0q7 0 10 6l15 26q2 5 11 5l25 0q9 0 15 6 5 6 5 15l0 53m-118 574l-13 0q-81-5-143-69-60-65-60-147 2-56 29-103 26-46 71-75l0-66q0-18 13-29 12-13 30-13l146 0q17 0 30 13 13 11 13 29l0 66q44 30 71 76 27 49 27 104 0 89-63 151-62 63-151 63" horiz-adv-x="1001" />

<glyph glyph-name="opportunity-discovered" unicode="&#xe89b;" d="M92 850l817 0q92 0 92-92l0-816q0-92-92-92l-817 0q-92 0-92 92l0 816q0 92 92 92m629-225l37 36q9 9 9 23 0 13-9 23-9 9-23 9-13 0-23-9l-37-38q-9-9-9-22 0-13 9-22 10-9 23-9 13 0 23 9m-219-22q62 0 106-45 45-44 45-106 0-38-19-72-18-33-51-53-30-20-30-55l0-44-103 0 0 44q0 35-29 55-32 19-51 53-18 32-19 70-1 56 42 103 44 46 100 50l9 0m366-152q0 13-9 22-10 10-23 10l-56 0q-14 0-23-10-10-9-10-22 0-13 10-22 9-10 23-10l56 0q13 0 23 10 9 9 9 22m-366 215l-13 0q-81-5-143-69-60-65-60-147 2-56 29-103 26-46 71-75l0-66q0-18 13-29 12-13 30-13l146 0q17 0 30 13 13 11 13 29l0 66q44 30 71 76 27 49 27 104 0 89-63 151-62 63-151 63m-175-42q9 9 9 23 0 13-9 22l-38 38q-9 9-22 9-13 0-23-9-10-10-10-23 0-14 10-23l38-37q10-9 22-9 13 0 23 9m-72-173q0 13-9 22-10 10-23 10l-58 0q-12 0-22-10-9-9-9-22 0-13 9-22 10-10 22-10l58 0q13 0 23 10 9 9 9 22m34-255l38 37q9 9 9 23 0 13-9 22-9 9-23 9-13 0-22-9l-38-38q-10-9-10-23 0-12 10-21 10-10 23-10 13 0 22 10m331-104q0 9-5 15-6 6-15 6l-190 0q-9 0-15-6-6-6-6-15l0-53 6-15q6-6 15-6l16-2 14-3 14-26q4-6 10-6l75 0q7 0 10 6l15 26q2 5 11 5l25 0q9 0 15 6 5 6 5 15l0 53m138 104q9 9 9 21 0 14-9 23l-37 37q-9 10-23 10-13 0-23-10-9-9-9-22 0-13 9-23l37-36q10-10 23-10 14 0 23 10" horiz-adv-x="1001" />

<glyph glyph-name="opportunity-failed" unicode="&#xe89c;" d="M716 452q0 81-53 141l-88-161-84 98-82-112-114 93q-9-30-9-61 2-56 29-103 26-46 71-75l0-66q0-18 13-29 12-13 30-13l146 0q17 0 30 13 13 11 13 29l0 66q44 30 71 76 27 49 27 104m-624 398l817 0q92 0 92-92l0-816q0-92-92-92l-817 0q-92 0-92 92l0 816q0 92 92 92m528-758q0 9-5 15-6 6-15 6l-190 0q-9 0-15-6-6-6-6-15l0-53 6-15q6-6 15-6l16-2 14-3 14-26q4-6 10-6l75 0q7 0 10 6l15 26q2 5 11 5l25 0q9 0 15 6 5 6 5 15l0 53" horiz-adv-x="1001" />

<glyph glyph-name="opportunity-search" unicode="&#xe89d;" d="M92 850l817 0q92 0 92-92l0-816q0-92-92-92l-817 0q-92 0-92 92l0 816q0 92 92 92m629-225l37 36q9 9 9 23 0 13-9 23-9 9-23 9-13 0-23-9l-37-38q-9-9-9-22 0-13 9-22 10-9 23-9 13 0 23 9m-221-264q-47 0-83 15-23 11-42 29l-2 2-21 28-6 12-1 2q9 23 24 40l2 2 21 18 23 11 3 2q34 15 82 15l39-3 1 0q41-5 70-25l29-28 3-4 14-28-1-2q-5-16-20-32l-9-10q-34-33-86-41l-40-3m56 88q0 22-16 38-17 17-40 17-20 0-35-13l-4-4q-16-16-16-38 0-23 16-39l3-3 1-1q14-12 35-12 23 0 40 16 14 15 16 36l0 1 0 2m312 2q0 13-9 22-10 10-23 10l-56 0q-14 0-23-10-10-9-10-22 0-13 10-22 9-10 23-10l56 0q13 0 23 10 9 9 9 22m-366 215l-13 0q-81-5-143-69-60-65-60-147 2-56 29-103 26-46 71-75l0-66q0-18 13-29 12-13 30-13l146 0q17 0 30 13 13 11 13 29l0 66q44 30 71 76 27 49 27 104 0 89-63 151-62 63-151 63m-175-42q9 9 9 23 0 13-9 22l-38 38q-9 9-22 9-13 0-23-9-10-10-10-23 0-14 10-23l38-37q10-9 22-9 13 0 23 9m-72-173q0 13-9 22-10 10-23 10l-58 0q-12 0-22-10-9-9-9-22 0-13 9-22 10-10 22-10l58 0q13 0 23 10 9 9 9 22m34-255l38 37q9 9 9 23 0 13-9 22-9 9-23 9-13 0-22-9l-38-38q-10-9-10-23 0-12 10-21 10-10 23-10 13 0 22 10m331-104q0 9-5 15-6 6-15 6l-190 0q-9 0-15-6-6-6-6-15l0-53 6-15q6-6 15-6l16-2 14-3 14-26q4-6 10-6l75 0q7 0 10 6l15 26q2 5 11 5l25 0q9 0 15 6 5 6 5 15l0 53m138 104q9 9 9 21 0 14-9 23l-37 37q-9 10-23 10-13 0-23-10-9-9-9-22 0-13 9-23l37-36q10-10 23-10 14 0 23 10" horiz-adv-x="1001" />

</font>
</defs>
</svg>
